<?xml version="1.0" encoding="utf-8" standalone="no"?>
<!DOCTYPE svg PUBLIC "-//W3C//DTD SVG 1.1//EN"
  "http://www.w3.org/Graphics/SVG/1.1/DTD/svg11.dtd">
<svg xmlns:xlink="http://www.w3.org/1999/xlink" width="658.9pt" height="477.503094pt" viewBox="0 0 658.9 477.503094" xmlns="http://www.w3.org/2000/svg" version="1.1">
 <metadata>
  <rdf:RDF xmlns:dc="http://purl.org/dc/elements/1.1/" xmlns:cc="http://creativecommons.org/ns#" xmlns:rdf="http://www.w3.org/1999/02/22-rdf-syntax-ns#">
   <cc:Work>
    <dc:type rdf:resource="http://purl.org/dc/dcmitype/StillImage"/>
    <dc:date>2026-07-02T21:28:49.895355</dc:date>
    <dc:format>image/svg+xml</dc:format>
    <dc:creator>
     <cc:Agent>
      <dc:title>Matplotlib v3.11.0, https://matplotlib.org/</dc:title>
     </cc:Agent>
    </dc:creator>
   </cc:Work>
  </rdf:RDF>
 </metadata>
 <defs>
  <style type="text/css">*{stroke-linejoin: round; stroke-linecap: butt}</style>
 </defs>
 <g id="figure_1">
  <g id="patch_1">
   <path d="M -0 477.503094 
L 658.9 477.503094 
L 658.9 0 
L -0 0 
z
" style="fill: #fcfcfd"/>
  </g>
  <g id="axes_1">
   <g id="patch_2">
    <path d="M 93.7 433.152 
L 651.7 433.152 
L 651.7 65.952 
L 93.7 65.952 
z
" style="fill: #ffffff"/>
   </g>
   <g id="matplotlib.axis_1">
    <g id="xtick_1">
     <g id="line2d_1">
      <path d="M 93.7 433.152 
L 93.7 65.952 
" clip-path="url(#p5b46e334f7)" style="fill: none; stroke: #e6e8f0; stroke-width: 0.8; stroke-linecap: round"/>
     </g>
     <g id="text_1">
      <!-- 0 -->
      <g style="fill: #262626" transform="translate(90.670703 451.449852) scale(0.11 -0.11)">
       <defs>
        <path id="MalgunGothic-13" d="M 278 2206 
Q 278 3425 675 4050 
Q 1072 4675 1819 4675 
Q 3253 4675 3253 2319 
Q 3253 1156 2854 539 
Q 2456 -78 1716 -78 
Q 1016 -78 647 520 
Q 278 1119 278 2206 
z
M 784 2231 
Q 784 344 1769 344 
Q 2747 344 2747 2259 
Q 2747 4250 1794 4250 
Q 784 4250 784 2231 
z
" transform="scale(0.015625)"/>
       </defs>
       <use xlink:href="#MalgunGothic-13"/>
      </g>
     </g>
    </g>
    <g id="xtick_2">
     <g id="line2d_2">
      <path d="M 199.653058 433.152 
L 199.653058 65.952 
" clip-path="url(#p5b46e334f7)" style="fill: none; stroke: #e6e8f0; stroke-width: 0.8; stroke-linecap: round"/>
     </g>
     <g id="text_2">
      <!-- 20 -->
      <g style="fill: #262626" transform="translate(193.594465 451.449852) scale(0.11 -0.11)">
       <defs>
        <path id="MalgunGothic-15" d="M 2519 3372 
Q 2519 3784 2275 4018 
Q 2031 4253 1628 4253 
Q 1341 4253 1053 4104 
Q 766 3956 534 3697 
L 534 4234 
Q 981 4675 1691 4675 
Q 2281 4675 2642 4334 
Q 3003 3994 3003 3416 
Q 3003 2919 2772 2545 
Q 2541 2172 1984 1775 
Q 1459 1406 1254 1215 
Q 1050 1025 967 854 
Q 884 684 884 450 
L 3116 450 
L 3116 0 
L 356 0 
L 356 225 
Q 356 603 461 870 
Q 566 1138 811 1392 
Q 1056 1647 1597 2022 
Q 2091 2363 2305 2670 
Q 2519 2978 2519 3372 
z
" transform="scale(0.015625)"/>
       </defs>
       <use xlink:href="#MalgunGothic-15"/>
       <use xlink:href="#MalgunGothic-13" transform="translate(55.078125 0)"/>
      </g>
     </g>
    </g>
    <g id="xtick_3">
     <g id="line2d_3">
      <path d="M 305.606117 433.152 
L 305.606117 65.952 
" clip-path="url(#p5b46e334f7)" style="fill: none; stroke: #e6e8f0; stroke-width: 0.8; stroke-linecap: round"/>
     </g>
     <g id="text_3">
      <!-- 40 -->
      <g style="fill: #262626" transform="translate(299.547523 451.449852) scale(0.11 -0.11)">
       <defs>
        <path id="MalgunGothic-17" d="M 2703 4600 
L 2703 1563 
L 3309 1563 
L 3309 1113 
L 2703 1113 
L 2703 0 
L 2213 0 
L 2213 1113 
L 50 1113 
L 50 1534 
Q 728 2297 1295 3109 
Q 1863 3922 2172 4600 
L 2703 4600 
z
M 625 1563 
L 2213 1563 
L 2213 3831 
Q 1613 2788 959 1981 
L 625 1563 
z
" transform="scale(0.015625)"/>
       </defs>
       <use xlink:href="#MalgunGothic-17"/>
       <use xlink:href="#MalgunGothic-13" transform="translate(55.078125 0)"/>
      </g>
     </g>
    </g>
    <g id="xtick_4">
     <g id="line2d_4">
      <path d="M 411.559175 433.152 
L 411.559175 65.952 
" clip-path="url(#p5b46e334f7)" style="fill: none; stroke: #e6e8f0; stroke-width: 0.8; stroke-linecap: round"/>
     </g>
     <g id="text_4">
      <!-- 60 -->
      <g style="fill: #262626" transform="translate(405.500582 451.449852) scale(0.11 -0.11)">
       <defs>
        <path id="MalgunGothic-19" d="M 2981 4069 
Q 2619 4250 2228 4250 
Q 1591 4250 1228 3689 
Q 866 3128 869 2213 
L 884 2213 
Q 1203 2872 1938 2872 
Q 2547 2872 2903 2478 
Q 3259 2084 3259 1450 
Q 3259 797 2857 359 
Q 2456 -78 1825 -78 
Q 1116 -78 736 478 
Q 356 1034 356 2019 
Q 356 3181 847 3928 
Q 1338 4675 2222 4675 
Q 2700 4675 2981 4544 
L 2981 4069 
z
M 906 1506 
Q 906 1022 1165 683 
Q 1425 344 1844 344 
Q 2247 344 2498 645 
Q 2750 947 2750 1388 
Q 2750 1888 2509 2167 
Q 2269 2447 1838 2447 
Q 1444 2447 1175 2173 
Q 906 1900 906 1506 
z
" transform="scale(0.015625)"/>
       </defs>
       <use xlink:href="#MalgunGothic-19"/>
       <use xlink:href="#MalgunGothic-13" transform="translate(55.078125 0)"/>
      </g>
     </g>
    </g>
    <g id="xtick_5">
     <g id="line2d_5">
      <path d="M 517.512234 433.152 
L 517.512234 65.952 
" clip-path="url(#p5b46e334f7)" style="fill: none; stroke: #e6e8f0; stroke-width: 0.8; stroke-linecap: round"/>
     </g>
     <g id="text_5">
      <!-- 80 -->
      <g style="fill: #262626" transform="translate(511.45364 451.449852) scale(0.11 -0.11)">
       <defs>
        <path id="MalgunGothic-1b" d="M 303 1281 
Q 303 1669 539 2011 
Q 775 2353 1153 2494 
Q 856 2647 675 2915 
Q 494 3184 494 3500 
Q 494 3828 659 4098 
Q 825 4369 1122 4522 
Q 1419 4675 1778 4675 
Q 2334 4675 2700 4342 
Q 3066 4009 3066 3500 
Q 3066 3181 2881 2914 
Q 2697 2647 2413 2494 
Q 2788 2350 3022 2009 
Q 3256 1669 3256 1281 
Q 3256 672 2843 297 
Q 2431 -78 1778 -78 
Q 1131 -78 717 301 
Q 303 681 303 1281 
z
M 809 1328 
Q 809 878 1081 611 
Q 1353 344 1781 344 
Q 2206 344 2482 619 
Q 2759 894 2759 1328 
Q 2759 1731 2482 2011 
Q 2206 2291 1781 2291 
Q 1372 2291 1090 2020 
Q 809 1750 809 1328 
z
M 1003 3459 
Q 1003 3125 1234 2900 
Q 1466 2675 1781 2675 
Q 2097 2675 2330 2900 
Q 2563 3125 2563 3459 
Q 2563 3803 2341 4026 
Q 2119 4250 1781 4250 
Q 1450 4250 1226 4029 
Q 1003 3809 1003 3459 
z
" transform="scale(0.015625)"/>
       </defs>
       <use xlink:href="#MalgunGothic-1b"/>
       <use xlink:href="#MalgunGothic-13" transform="translate(55.078125 0)"/>
      </g>
     </g>
    </g>
    <g id="xtick_6">
     <g id="line2d_6">
      <path d="M 623.465292 433.152 
L 623.465292 65.952 
" clip-path="url(#p5b46e334f7)" style="fill: none; stroke: #e6e8f0; stroke-width: 0.8; stroke-linecap: round"/>
     </g>
     <g id="text_6">
      <!-- 100 -->
      <g style="fill: #262626" transform="translate(614.377402 451.449852) scale(0.11 -0.11)">
       <defs>
        <path id="MalgunGothic-14" d="M 2231 0 
L 1734 0 
L 1734 3972 
Q 1591 3828 1266 3661 
Q 941 3494 672 3428 
L 672 3959 
Q 1016 4056 1409 4275 
Q 1803 4494 2031 4700 
L 2231 4700 
L 2231 0 
z
" transform="scale(0.015625)"/>
       </defs>
       <use xlink:href="#MalgunGothic-14"/>
       <use xlink:href="#MalgunGothic-13" transform="translate(55.078125 0)"/>
       <use xlink:href="#MalgunGothic-13" transform="translate(110.15625 0)"/>
      </g>
     </g>
    </g>
    <g id="text_7">
     <!-- 인구 10만 명당 발생률 -->
     <g style="fill: #1f2430" transform="translate(311.7625 467.90075) scale(0.12 -0.12)">
      <defs>
       <path id="MalgunGothic-889" d="M 4947 1063 
L 4947 5466 
L 5416 5466 
L 5416 1063 
L 4947 1063 
z
M 2438 2175 
Q 1763 2175 1309 2601 
Q 856 3028 856 3706 
Q 856 4388 1307 4811 
Q 1759 5234 2438 5234 
Q 3116 5234 3564 4812 
Q 4013 4391 4013 3706 
Q 4013 3028 3563 2601 
Q 3113 2175 2438 2175 
z
M 2438 4819 
Q 1944 4819 1634 4516 
Q 1325 4213 1325 3706 
Q 1325 3200 1633 2895 
Q 1941 2591 2438 2591 
Q 2934 2591 3243 2895 
Q 3553 3200 3553 3706 
Q 3553 4213 3243 4516 
Q 2934 4819 2438 4819 
z
M 1613 -331 
L 1613 1625 
L 2081 1625 
L 2081 91 
L 5575 91 
L 5575 -331 
L 1613 -331 
z
" transform="scale(0.015625)"/>
       <path id="MalgunGothic-2f1" d="M 2913 -563 
L 2913 2228 
L 403 2228 
L 403 2650 
L 4594 2650 
Q 4666 3391 4666 4788 
L 1313 4788 
L 1313 5203 
L 5131 5203 
Q 5131 3656 5044 2650 
L 5997 2650 
L 5997 2228 
L 3378 2228 
L 3378 -563 
L 2913 -563 
z
" transform="scale(0.015625)"/>
       <path id="MalgunGothic-3" transform="scale(0.015625)"/>
       <path id="MalgunGothic-583" d="M 5125 3169 
L 5125 1056 
L 4659 1056 
L 4659 5466 
L 5125 5466 
L 5125 3591 
L 6034 3591 
L 6034 3169 
L 5125 3169 
z
M 763 2241 
L 763 5100 
L 3513 5100 
L 3513 2241 
L 763 2241 
z
M 3053 4684 
L 1222 4684 
L 1222 2656 
L 3053 2656 
L 3053 4684 
z
M 1459 -331 
L 1459 1581 
L 1925 1581 
L 1925 91 
L 5294 91 
L 5294 -331 
L 1459 -331 
z
" transform="scale(0.015625)"/>
       <path id="MalgunGothic-5b8" d="M 984 2322 
L 984 5191 
L 3756 5191 
L 3756 4588 
L 4953 4588 
L 4953 5466 
L 5422 5466 
L 5422 1784 
L 4953 1784 
L 4953 2913 
L 3756 2913 
L 3756 2322 
L 984 2322 
z
M 3297 4775 
L 1453 4775 
L 1453 2741 
L 3297 2741 
L 3297 4775 
z
M 3756 3316 
L 4953 3316 
L 4953 4184 
L 3756 4184 
L 3756 3316 
z
M 3500 -506 
Q 2556 -506 2042 -179 
Q 1528 147 1528 666 
Q 1528 1184 2042 1511 
Q 2556 1838 3500 1838 
Q 4444 1838 4958 1511 
Q 5472 1184 5472 666 
Q 5472 147 4958 -179 
Q 4444 -506 3500 -506 
z
M 3500 1441 
Q 2781 1441 2404 1222 
Q 2028 1003 2028 666 
Q 2028 328 2408 112 
Q 2788 -103 3500 -103 
Q 4209 -103 4590 111 
Q 4972 325 4972 666 
Q 4972 1006 4595 1223 
Q 4219 1441 3500 1441 
z
" transform="scale(0.015625)"/>
       <path id="MalgunGothic-43a" d="M 5125 3391 
L 5125 1959 
L 4659 1959 
L 4659 5466 
L 5125 5466 
L 5125 3816 
L 6034 3816 
L 6034 3391 
L 5125 3391 
z
M 4000 2559 
Q 3016 2497 831 2497 
L 831 5119 
L 3719 5119 
L 3719 4703 
L 1300 4703 
L 1300 2913 
Q 3191 2913 3969 2963 
L 4000 2559 
z
M 3263 -481 
Q 2319 -481 1809 -162 
Q 1300 156 1300 672 
Q 1300 1184 1808 1504 
Q 2316 1825 3263 1825 
Q 4209 1825 4718 1508 
Q 5228 1191 5228 672 
Q 5228 150 4717 -165 
Q 4206 -481 3263 -481 
z
M 3263 1428 
Q 2550 1428 2173 1220 
Q 1797 1013 1797 672 
Q 1797 331 2173 123 
Q 2550 -84 3263 -84 
Q 3981 -84 4359 125 
Q 4738 334 4738 672 
Q 4738 1009 4359 1218 
Q 3981 1428 3263 1428 
z
" transform="scale(0.015625)"/>
       <path id="MalgunGothic-608" d="M 5125 3584 
L 5125 2400 
L 4666 2400 
L 4666 5466 
L 5125 5466 
L 5125 4000 
L 6034 4000 
L 6034 3584 
L 5125 3584 
z
M 756 2725 
L 756 5259 
L 1216 5259 
L 1216 4319 
L 3059 4319 
L 3059 5259 
L 3519 5259 
L 3519 2725 
L 756 2725 
z
M 3059 3916 
L 1216 3916 
L 1216 3128 
L 3059 3128 
L 3059 3916 
z
M 1447 -488 
L 1447 991 
L 4666 991 
L 4666 1656 
L 1447 1656 
L 1447 2069 
L 5125 2069 
L 5125 603 
L 1906 603 
L 1906 -78 
L 5294 -78 
L 5294 -488 
L 1447 -488 
z
" transform="scale(0.015625)"/>
       <path id="MalgunGothic-6e2" d="M 4991 1953 
L 4991 3463 
L 4288 3463 
L 4288 2113 
L 3822 2113 
L 3822 5344 
L 4288 5344 
L 4288 3866 
L 4991 3866 
L 4991 5466 
L 5459 5466 
L 5459 1953 
L 4991 1953 
z
M 3138 2406 
Q 2794 2603 2431 3009 
Q 2069 3416 1941 3725 
Q 1828 3369 1467 2930 
Q 1106 2491 716 2253 
L 384 2566 
Q 981 2881 1345 3442 
Q 1709 4003 1709 4616 
L 1709 5253 
L 2156 5253 
L 2156 4616 
Q 2156 4038 2536 3514 
Q 2916 2991 3444 2753 
L 3138 2406 
z
M 3488 -459 
Q 2538 -459 2008 -139 
Q 1478 181 1478 691 
Q 1478 1200 2008 1522 
Q 2538 1844 3488 1844 
Q 4444 1844 4973 1522 
Q 5503 1200 5503 691 
Q 5503 181 4973 -139 
Q 4444 -459 3488 -459 
z
M 3488 1447 
Q 2756 1447 2364 1233 
Q 1972 1019 1972 691 
Q 1972 359 2367 148 
Q 2763 -63 3488 -63 
Q 4209 -63 4607 146 
Q 5006 356 5006 691 
Q 5006 1022 4609 1234 
Q 4213 1447 3488 1447 
z
" transform="scale(0.015625)"/>
       <path id="MalgunGothic-569" d="M 1344 3150 
L 1344 4447 
L 4594 4447 
L 4594 4953 
L 1344 4953 
L 1344 5363 
L 5056 5363 
L 5056 4044 
L 1806 4044 
L 1806 3559 
L 5191 3559 
L 5191 3150 
L 1344 3150 
z
M 1325 -447 
L 1325 856 
L 4609 856 
L 4609 1313 
L 1325 1313 
L 1325 1722 
L 2003 1722 
L 2003 2259 
L 403 2259 
L 403 2663 
L 5997 2663 
L 5997 2259 
L 4397 2259 
L 4397 1722 
L 5069 1722 
L 5069 453 
L 1784 453 
L 1784 -38 
L 5203 -38 
L 5203 -447 
L 1325 -447 
z
M 3938 1722 
L 3938 2259 
L 2463 2259 
L 2463 1722 
L 3938 1722 
z
" transform="scale(0.015625)"/>
      </defs>
      <use xlink:href="#MalgunGothic-889"/>
      <use xlink:href="#MalgunGothic-2f1" transform="translate(100 0)"/>
      <use xlink:href="#MalgunGothic-3" transform="translate(200 0)"/>
      <use xlink:href="#MalgunGothic-14" transform="translate(235.15625 0)"/>
      <use xlink:href="#MalgunGothic-13" transform="translate(290.234375 0)"/>
      <use xlink:href="#MalgunGothic-583" transform="translate(345.3125 0)"/>
      <use xlink:href="#MalgunGothic-3" transform="translate(445.3125 0)"/>
      <use xlink:href="#MalgunGothic-5b8" transform="translate(480.46875 0)"/>
      <use xlink:href="#MalgunGothic-43a" transform="translate(580.46875 0)"/>
      <use xlink:href="#MalgunGothic-3" transform="translate(680.46875 0)"/>
      <use xlink:href="#MalgunGothic-608" transform="translate(715.625 0)"/>
      <use xlink:href="#MalgunGothic-6e2" transform="translate(815.625 0)"/>
      <use xlink:href="#MalgunGothic-569" transform="translate(915.625 0)"/>
     </g>
    </g>
   </g>
   <g id="matplotlib.axis_2">
    <g id="ytick_1">
     <g id="text_8">
      <!-- 일본뇌염 -->
      <g style="fill: #262626" transform="translate(40.2 406.380026) scale(0.11 -0.11)">
       <defs>
        <path id="MalgunGothic-88a" d="M 4947 2363 
L 4947 5466 
L 5422 5466 
L 5422 2363 
L 4947 2363 
z
M 2419 2578 
Q 1738 2578 1314 2970 
Q 891 3363 891 3969 
Q 891 4572 1314 4961 
Q 1738 5350 2419 5350 
Q 3097 5350 3523 4959 
Q 3950 4569 3950 3969 
Q 3950 3366 3522 2972 
Q 3094 2578 2419 2578 
z
M 2419 4947 
Q 1931 4947 1643 4680 
Q 1356 4413 1356 3969 
Q 1356 3522 1643 3248 
Q 1931 2975 2419 2975 
Q 2906 2975 3193 3248 
Q 3481 3522 3481 3969 
Q 3481 4413 3193 4680 
Q 2906 4947 2419 4947 
z
M 1703 -422 
L 1703 1038 
L 4959 1038 
L 4959 1613 
L 1703 1613 
L 1703 2028 
L 5422 2028 
L 5422 634 
L 2163 634 
L 2163 -6 
L 5588 -6 
L 5588 -422 
L 1703 -422 
z
" transform="scale(0.015625)"/>
        <path id="MalgunGothic-642" d="M 403 1759 
L 403 2181 
L 2963 2181 
L 2963 2956 
L 1356 2956 
L 1356 5288 
L 1819 5288 
L 1819 4519 
L 4581 4519 
L 4581 5288 
L 5044 5288 
L 5044 2956 
L 3438 2956 
L 3438 2181 
L 5997 2181 
L 5997 1759 
L 403 1759 
z
M 4581 4103 
L 1819 4103 
L 1819 3366 
L 4581 3366 
L 4581 4103 
z
M 1319 -359 
L 1319 1375 
L 1784 1375 
L 1784 56 
L 5203 56 
L 5203 -359 
L 1319 -359 
z
" transform="scale(0.015625)"/>
        <path id="MalgunGothic-3ef" d="M 4984 -563 
L 4984 5466 
L 5453 5466 
L 5453 -563 
L 4984 -563 
z
M 1075 4934 
L 1544 4934 
L 1544 3066 
L 4159 3066 
L 4159 2650 
L 2834 2650 
L 2834 1166 
Q 4181 1197 4603 1228 
L 4628 825 
Q 2847 722 475 722 
L 422 1134 
Q 1459 1134 2369 1153 
L 2369 2650 
L 1075 2650 
L 1075 4934 
z
" transform="scale(0.015625)"/>
        <path id="MalgunGothic-80d" d="M 3641 2791 
Q 3194 2241 2413 2241 
Q 1734 2241 1292 2670 
Q 850 3100 850 3781 
Q 850 4466 1295 4898 
Q 1741 5331 2413 5331 
Q 3247 5331 3700 4703 
L 4947 4703 
L 4947 5466 
L 5416 5466 
L 5416 2047 
L 4947 2047 
L 4947 2791 
L 3641 2791 
z
M 2413 4928 
Q 1925 4928 1622 4612 
Q 1319 4297 1319 3781 
Q 1319 3269 1620 2959 
Q 1922 2650 2413 2650 
Q 2897 2650 3205 2956 
Q 3513 3263 3513 3781 
Q 3513 4303 3205 4615 
Q 2897 4928 2413 4928 
z
M 3872 3200 
L 4947 3200 
L 4947 4288 
L 3897 4288 
Q 3975 4063 3975 3781 
Q 3975 3478 3872 3200 
z
M 1703 -397 
L 1703 1716 
L 5416 1716 
L 5416 -397 
L 1703 -397 
z
M 4953 1306 
L 2163 1306 
L 2163 13 
L 4953 13 
L 4953 1306 
z
" transform="scale(0.015625)"/>
       </defs>
       <use xlink:href="#MalgunGothic-88a"/>
       <use xlink:href="#MalgunGothic-642" transform="translate(100 0)"/>
       <use xlink:href="#MalgunGothic-3ef" transform="translate(200 0)"/>
       <use xlink:href="#MalgunGothic-80d" transform="translate(300 0)"/>
      </g>
     </g>
    </g>
    <g id="ytick_2">
     <g id="text_9">
      <!-- 백일해 -->
      <g style="fill: #262626" transform="translate(51.2 362.914116) scale(0.11 -0.11)">
       <defs>
        <path id="MalgunGothic-612" d="M 5056 2028 
L 5056 3438 
L 4359 3438 
L 4359 2028 
L 3897 2028 
L 3897 5344 
L 4359 5344 
L 4359 3859 
L 5056 3859 
L 5056 5466 
L 5522 5466 
L 5522 2028 
L 5056 2028 
z
M 763 2363 
L 763 5209 
L 1222 5209 
L 1222 4103 
L 2772 4103 
L 2772 5209 
L 3231 5209 
L 3231 2363 
L 763 2363 
z
M 2772 3688 
L 1222 3688 
L 1222 2778 
L 2772 2778 
L 2772 3688 
z
M 5056 -563 
L 5056 1281 
L 1581 1281 
L 1581 1697 
L 5522 1697 
L 5522 -563 
L 5056 -563 
z
" transform="scale(0.015625)"/>
        <path id="MalgunGothic-b25" d="M 5119 -563 
L 5119 2272 
L 4403 2272 
L 4403 -372 
L 3944 -372 
L 3944 5350 
L 4403 5350 
L 4403 2688 
L 5119 2688 
L 5119 5466 
L 5588 5466 
L 5588 -563 
L 5119 -563 
z
M 416 3969 
L 416 4384 
L 1753 4384 
L 1753 5319 
L 2222 5319 
L 2222 4384 
L 3559 4384 
L 3559 3969 
L 416 3969 
z
M 2003 897 
Q 1434 897 1046 1270 
Q 659 1644 659 2222 
Q 659 2794 1045 3170 
Q 1431 3547 2003 3547 
Q 2572 3547 2956 3173 
Q 3341 2800 3341 2222 
Q 3341 1638 2955 1267 
Q 2569 897 2003 897 
z
M 2003 3138 
Q 1603 3138 1354 2878 
Q 1106 2619 1106 2222 
Q 1106 1819 1356 1562 
Q 1606 1306 2003 1306 
Q 2394 1306 2647 1561 
Q 2900 1816 2900 2222 
Q 2900 2622 2648 2880 
Q 2397 3138 2003 3138 
z
" transform="scale(0.015625)"/>
       </defs>
       <use xlink:href="#MalgunGothic-612"/>
       <use xlink:href="#MalgunGothic-88a" transform="translate(100 0)"/>
       <use xlink:href="#MalgunGothic-b25" transform="translate(200 0)"/>
      </g>
     </g>
    </g>
    <g id="ytick_3">
     <g id="text_10">
      <!-- 신증후군출혈열 -->
      <g style="fill: #262626" transform="translate(7.2 319.520395) scale(0.11 -0.11)">
       <defs>
        <path id="MalgunGothic-766" d="M 4878 1178 
L 4878 5466 
L 5344 5466 
L 5344 1178 
L 4878 1178 
z
M 3675 2069 
Q 3228 2344 2829 2776 
Q 2431 3209 2266 3566 
Q 2091 3150 1662 2648 
Q 1234 2147 819 1913 
L 481 2234 
Q 1125 2559 1573 3198 
Q 2022 3838 2022 4494 
L 2022 5269 
L 2478 5269 
L 2478 4494 
Q 2478 3894 2943 3286 
Q 3409 2678 3988 2406 
L 3675 2069 
z
M 1631 -366 
L 1631 1550 
L 2100 1550 
L 2100 44 
L 5503 44 
L 5503 -366 
L 1631 -366 
z
" transform="scale(0.015625)"/>
        <path id="MalgunGothic-90e" d="M 5459 3272 
Q 4738 3378 4095 3717 
Q 3453 4056 3206 4416 
Q 2941 4056 2294 3717 
Q 1647 3378 972 3278 
L 697 3653 
Q 1484 3716 2148 4086 
Q 2813 4456 2950 4878 
L 1025 4878 
L 1025 5300 
L 5375 5300 
L 5375 4878 
L 3456 4878 
Q 3600 4459 4270 4084 
Q 4941 3709 5703 3653 
L 5459 3272 
z
M 403 2328 
L 403 2747 
L 5997 2747 
L 5997 2328 
L 403 2328 
z
M 3200 -500 
Q 2263 -500 1766 -200 
Q 1269 100 1269 628 
Q 1269 1144 1767 1442 
Q 2266 1741 3200 1741 
Q 4134 1741 4632 1442 
Q 5131 1144 5131 628 
Q 5131 100 4634 -200 
Q 4138 -500 3200 -500 
z
M 3200 1344 
Q 2481 1344 2117 1155 
Q 1753 966 1753 628 
Q 1753 284 2123 90 
Q 2494 -103 3200 -103 
Q 3903 -103 4275 90 
Q 4647 284 4647 628 
Q 4647 966 4281 1155 
Q 3916 1344 3200 1344 
z
" transform="scale(0.015625)"/>
        <path id="MalgunGothic-b6f" d="M 928 4397 
L 928 4800 
L 2963 4800 
L 2963 5459 
L 3438 5459 
L 3438 4800 
L 5472 4800 
L 5472 4397 
L 928 4397 
z
M 3200 2075 
Q 2234 2075 1743 2340 
Q 1253 2606 1253 3066 
Q 1253 3528 1753 3795 
Q 2253 4063 3200 4063 
Q 4144 4063 4642 3795 
Q 5141 3528 5141 3066 
Q 5141 2606 4650 2340 
Q 4159 2075 3200 2075 
z
M 3194 3675 
Q 2484 3675 2112 3503 
Q 1741 3331 1741 3066 
Q 1741 2797 2114 2630 
Q 2488 2463 3194 2463 
Q 3900 2463 4276 2628 
Q 4653 2794 4653 3066 
Q 4653 3334 4276 3504 
Q 3900 3675 3194 3675 
z
M 3438 1209 
L 3438 -563 
L 2963 -563 
L 2963 1209 
L 403 1209 
L 403 1625 
L 5997 1625 
L 5997 1209 
L 3438 1209 
z
" transform="scale(0.015625)"/>
        <path id="MalgunGothic-2f3" d="M 3003 703 
L 3003 2497 
L 403 2497 
L 403 2919 
L 4581 2919 
Q 4634 3438 4634 4788 
L 1338 4788 
L 1338 5203 
L 5100 5203 
Q 5100 3819 5038 2919 
L 5997 2919 
L 5997 2497 
L 3469 2497 
L 3469 703 
L 3003 703 
z
M 1338 -300 
L 1338 1638 
L 1806 1638 
L 1806 122 
L 5216 122 
L 5216 -300 
L 1338 -300 
z
" transform="scale(0.015625)"/>
        <path id="MalgunGothic-9b7" d="M 5466 3334 
Q 4759 3400 4114 3664 
Q 3469 3928 3213 4225 
Q 2966 3931 2323 3670 
Q 1681 3409 966 3341 
L 709 3750 
Q 1328 3725 2017 3970 
Q 2706 4216 2906 4603 
L 1056 4603 
L 1056 5019 
L 2969 5019 
L 2969 5550 
L 3444 5550 
L 3444 5019 
L 5344 5019 
L 5344 4603 
L 3494 4603 
Q 3691 4241 4356 3995 
Q 5022 3750 5691 3750 
L 5466 3334 
z
M 1319 -416 
L 1319 947 
L 4616 947 
L 4616 1478 
L 1319 1478 
L 1319 1888 
L 2963 1888 
L 2963 2484 
L 403 2484 
L 403 2900 
L 5997 2900 
L 5997 2484 
L 3438 2484 
L 3438 1888 
L 5075 1888 
L 5075 544 
L 1778 544 
L 1778 0 
L 5234 0 
L 5234 -416 
L 1319 -416 
z
" transform="scale(0.015625)"/>
        <path id="MalgunGothic-b44" d="M 494 4384 
L 494 4794 
L 2028 4794 
L 2028 5509 
L 2491 5509 
L 2491 4794 
L 4025 4794 
L 4025 4384 
L 494 4384 
z
M 3950 2578 
L 3950 2981 
L 4947 2981 
L 4947 3616 
L 3950 3616 
L 3950 4019 
L 4947 4019 
L 4947 5466 
L 5416 5466 
L 5416 2106 
L 4947 2106 
L 4947 2578 
L 3950 2578 
z
M 2259 2156 
Q 1572 2156 1186 2440 
Q 800 2725 800 3150 
Q 800 3578 1190 3856 
Q 1581 4134 2259 4134 
Q 2938 4134 3325 3853 
Q 3713 3572 3713 3150 
Q 3713 2731 3330 2443 
Q 2947 2156 2259 2156 
z
M 2259 3750 
Q 1784 3750 1526 3581 
Q 1269 3413 1269 3150 
Q 1269 2878 1531 2709 
Q 1794 2541 2259 2541 
Q 2719 2541 2981 2709 
Q 3244 2878 3244 3150 
Q 3244 3413 2986 3581 
Q 2728 3750 2259 3750 
z
M 1606 -481 
L 1606 856 
L 4953 856 
L 4953 1363 
L 1606 1363 
L 1606 1772 
L 5416 1772 
L 5416 459 
L 2075 459 
L 2075 -78 
L 5581 -78 
L 5581 -481 
L 1606 -481 
z
" transform="scale(0.015625)"/>
        <path id="MalgunGothic-80a" d="M 3647 3047 
Q 3184 2463 2400 2463 
Q 1738 2463 1305 2889 
Q 872 3316 872 3938 
Q 872 4556 1305 4982 
Q 1738 5409 2400 5409 
Q 3216 5409 3675 4794 
L 4947 4794 
L 4947 5466 
L 5416 5466 
L 5416 2272 
L 4947 2272 
L 4947 3047 
L 3647 3047 
z
M 2400 5006 
Q 1922 5006 1626 4698 
Q 1331 4391 1331 3938 
Q 1331 3481 1628 3170 
Q 1925 2859 2400 2859 
Q 2875 2859 3175 3168 
Q 3475 3478 3475 3938 
Q 3475 4394 3176 4700 
Q 2878 5006 2400 5006 
z
M 3866 3450 
L 4947 3450 
L 4947 4391 
L 3878 4391 
Q 3950 4163 3950 3938 
Q 3950 3709 3866 3450 
z
M 1728 -422 
L 1728 991 
L 4953 991 
L 4953 1528 
L 1728 1528 
L 1728 1941 
L 5416 1941 
L 5416 581 
L 2188 581 
L 2188 -6 
L 5581 -6 
L 5581 -422 
L 1728 -422 
z
" transform="scale(0.015625)"/>
       </defs>
       <use xlink:href="#MalgunGothic-766"/>
       <use xlink:href="#MalgunGothic-90e" transform="translate(100 0)"/>
       <use xlink:href="#MalgunGothic-b6f" transform="translate(200 0)"/>
       <use xlink:href="#MalgunGothic-2f3" transform="translate(300 0)"/>
       <use xlink:href="#MalgunGothic-9b7" transform="translate(400 0)"/>
       <use xlink:href="#MalgunGothic-b44" transform="translate(500 0)"/>
       <use xlink:href="#MalgunGothic-80a" transform="translate(600 0)"/>
      </g>
     </g>
    </g>
    <g id="ytick_4">
     <g id="text_11">
      <!-- 쯔쯔가무시증 -->
      <g style="fill: #262626" transform="translate(18.2 275.982298) scale(0.11 -0.11)">
       <defs>
        <path id="MalgunGothic-961" d="M 4488 4469 
L 4488 4347 
Q 4488 3369 5672 2463 
L 5338 2156 
Q 4469 2847 4269 3475 
Q 4106 2853 3128 1972 
L 2759 2253 
Q 4038 3278 4038 4353 
L 4038 4469 
L 2369 4469 
L 2369 4313 
Q 2369 3881 2539 3550 
Q 2709 3219 3181 2906 
L 2894 2572 
Q 2803 2656 2706 2734 
Q 2309 3047 2131 3384 
Q 1947 2859 1056 2125 
L 703 2406 
Q 1919 3350 1919 4319 
L 1919 4469 
L 775 4469 
L 775 4884 
L 5625 4884 
L 5625 4469 
L 4488 4469 
z
M 5997 391 
L 403 391 
L 403 806 
L 5997 806 
L 5997 391 
z
" transform="scale(0.015625)"/>
        <path id="MalgunGothic-27c" d="M 5094 2566 
L 5094 -563 
L 4628 -563 
L 4628 5466 
L 5094 5466 
L 5094 2981 
L 6175 2981 
L 6175 2566 
L 5094 2566 
z
M 3609 4928 
Q 3541 2363 897 863 
L 538 1241 
Q 1484 1631 2234 2506 
Q 2984 3381 3109 4513 
L 794 4513 
L 794 4928 
L 3609 4928 
z
" transform="scale(0.015625)"/>
        <path id="MalgunGothic-5d4" d="M 1331 2919 
L 1331 5247 
L 5063 5247 
L 5063 2919 
L 1331 2919 
z
M 4603 4831 
L 1791 4831 
L 1791 3334 
L 4603 3334 
L 4603 4831 
z
M 3438 1691 
L 3438 -563 
L 2963 -563 
L 2963 1691 
L 403 1691 
L 403 2106 
L 5997 2106 
L 5997 1691 
L 3438 1691 
z
" transform="scale(0.015625)"/>
        <path id="MalgunGothic-764" d="M 4947 -563 
L 4947 5466 
L 5416 5466 
L 5416 -563 
L 4947 -563 
z
M 3769 966 
Q 3263 1353 2820 1939 
Q 2378 2525 2259 2950 
Q 2116 2463 1687 1872 
Q 1259 1281 756 891 
L 397 1203 
Q 1141 1703 1581 2479 
Q 2022 3256 2022 4063 
L 2022 5050 
L 2484 5050 
L 2484 4084 
Q 2484 3303 2920 2556 
Q 3356 1809 4097 1331 
L 3769 966 
z
" transform="scale(0.015625)"/>
       </defs>
       <use xlink:href="#MalgunGothic-961"/>
       <use xlink:href="#MalgunGothic-961" transform="translate(100 0)"/>
       <use xlink:href="#MalgunGothic-27c" transform="translate(200 0)"/>
       <use xlink:href="#MalgunGothic-5d4" transform="translate(300 0)"/>
       <use xlink:href="#MalgunGothic-764" transform="translate(400 0)"/>
       <use xlink:href="#MalgunGothic-90e" transform="translate(500 0)"/>
      </g>
     </g>
    </g>
    <g id="ytick_5">
     <g id="text_12">
      <!-- A형간염 -->
      <g style="fill: #262626" transform="translate(43.958906 232.54303) scale(0.11 -0.11)">
       <defs>
        <path id="MalgunGothic-24" d="M 4134 0 
L 3575 0 
L 3075 1306 
L 1103 1306 
L 638 0 
L 75 0 
L 1844 4600 
L 2356 4600 
L 4134 0 
z
M 2903 1769 
L 2169 3756 
Q 2128 3866 2100 4059 
L 2084 4059 
Q 2050 3844 2009 3756 
L 1281 1769 
L 2903 1769 
z
" transform="scale(0.015625)"/>
        <path id="MalgunGothic-b49" d="M 494 4306 
L 494 4716 
L 2028 4716 
L 2028 5497 
L 2491 5497 
L 2491 4716 
L 4025 4716 
L 4025 4306 
L 494 4306 
z
M 3950 2463 
L 3950 2875 
L 4947 2875 
L 4947 3541 
L 3950 3541 
L 3950 3944 
L 4947 3944 
L 4947 5466 
L 5416 5466 
L 5416 1778 
L 4947 1778 
L 4947 2463 
L 3950 2463 
z
M 2253 1959 
Q 1584 1959 1192 2257 
Q 800 2556 800 3009 
Q 800 3459 1189 3754 
Q 1578 4050 2259 4050 
Q 2934 4050 3323 3754 
Q 3713 3459 3713 3009 
Q 3713 2556 3320 2257 
Q 2928 1959 2253 1959 
z
M 2259 3653 
Q 1797 3653 1533 3475 
Q 1269 3297 1269 3009 
Q 1269 2722 1534 2539 
Q 1800 2356 2259 2356 
Q 2719 2356 2981 2539 
Q 3244 2722 3244 3009 
Q 3244 3294 2983 3473 
Q 2722 3653 2259 3653 
z
M 3481 -519 
Q 2519 -519 2001 -226 
Q 1484 66 1484 563 
Q 1484 1059 2000 1348 
Q 2516 1638 3481 1638 
Q 4456 1638 4967 1347 
Q 5478 1056 5478 563 
Q 5478 66 4964 -226 
Q 4450 -519 3481 -519 
z
M 3481 1241 
Q 2753 1241 2368 1062 
Q 1984 884 1984 563 
Q 1984 241 2364 59 
Q 2744 -122 3481 -122 
Q 4222 -122 4603 61 
Q 4984 244 4984 563 
Q 4984 884 4598 1062 
Q 4213 1241 3481 1241 
z
" transform="scale(0.015625)"/>
        <path id="MalgunGothic-27e" d="M 5125 3122 
L 5125 1063 
L 4659 1063 
L 4659 5466 
L 5125 5466 
L 5125 3541 
L 6034 3541 
L 6034 3122 
L 5125 3122 
z
M 3513 5100 
Q 3403 3872 2556 3011 
Q 1709 2150 794 1800 
L 469 2163 
Q 1344 2450 2087 3172 
Q 2831 3894 2963 4678 
L 831 4678 
L 831 5100 
L 3513 5100 
z
M 1459 -325 
L 1459 1509 
L 1925 1509 
L 1925 97 
L 5294 97 
L 5294 -325 
L 1459 -325 
z
" transform="scale(0.015625)"/>
       </defs>
       <use xlink:href="#MalgunGothic-24"/>
       <use xlink:href="#MalgunGothic-b49" transform="translate(65.828125 0)"/>
       <use xlink:href="#MalgunGothic-27e" transform="translate(165.828125 0)"/>
       <use xlink:href="#MalgunGothic-80d" transform="translate(265.828125 0)"/>
      </g>
     </g>
    </g>
    <g id="ytick_6">
     <g id="text_13">
      <!-- 말라리아 -->
      <g style="fill: #262626" transform="translate(40.2 189.05048) scale(0.11 -0.11)">
       <defs>
        <path id="MalgunGothic-586" d="M 5125 3591 
L 5125 2419 
L 4659 2419 
L 4659 5466 
L 5125 5466 
L 5125 4006 
L 6034 4006 
L 6034 3591 
L 5125 3591 
z
M 756 2747 
L 756 5241 
L 3494 5241 
L 3494 2747 
L 756 2747 
z
M 3034 4825 
L 1216 4825 
L 1216 3156 
L 3034 3156 
L 3034 4825 
z
M 1447 -422 
L 1447 1069 
L 4666 1069 
L 4666 1678 
L 1447 1678 
L 1447 2094 
L 5125 2094 
L 5125 666 
L 1906 666 
L 1906 -6 
L 5294 -6 
L 5294 -422 
L 1447 -422 
z
" transform="scale(0.015625)"/>
        <path id="MalgunGothic-502" d="M 5094 2503 
L 5094 -563 
L 4628 -563 
L 4628 5466 
L 5094 5466 
L 5094 2925 
L 6138 2925 
L 6138 2503 
L 5094 2503 
z
M 806 794 
L 806 3169 
L 3003 3169 
L 3003 4506 
L 806 4506 
L 806 4922 
L 3469 4922 
L 3469 2759 
L 1275 2759 
L 1275 1203 
Q 3419 1203 4063 1338 
L 4128 928 
Q 3284 794 806 794 
z
" transform="scale(0.015625)"/>
        <path id="MalgunGothic-579" d="M 4884 -563 
L 4884 5466 
L 5350 5466 
L 5350 -563 
L 4884 -563 
z
M 856 738 
L 856 3128 
L 3150 3128 
L 3150 4519 
L 856 4519 
L 856 4934 
L 3616 4934 
L 3616 2725 
L 1325 2725 
L 1325 1153 
Q 3597 1153 4197 1281 
L 4250 878 
Q 3500 738 856 738 
z
" transform="scale(0.015625)"/>
        <path id="MalgunGothic-7c5" d="M 5094 2600 
L 5094 -563 
L 4628 -563 
L 4628 5466 
L 5094 5466 
L 5094 3022 
L 6113 3022 
L 6113 2600 
L 5094 2600 
z
M 2194 966 
Q 1509 966 1087 1512 
Q 666 2059 666 3016 
Q 666 3981 1083 4522 
Q 1500 5063 2194 5063 
Q 2891 5063 3308 4514 
Q 3725 3966 3725 3016 
Q 3725 2063 3306 1514 
Q 2888 966 2194 966 
z
M 2194 4647 
Q 1716 4647 1420 4208 
Q 1125 3769 1125 3016 
Q 1125 2275 1423 1828 
Q 1722 1381 2194 1381 
Q 2663 1381 2963 1831 
Q 3263 2281 3263 3016 
Q 3263 3766 2969 4206 
Q 2675 4647 2194 4647 
z
" transform="scale(0.015625)"/>
       </defs>
       <use xlink:href="#MalgunGothic-586"/>
       <use xlink:href="#MalgunGothic-502" transform="translate(100 0)"/>
       <use xlink:href="#MalgunGothic-579" transform="translate(200 0)"/>
       <use xlink:href="#MalgunGothic-7c5" transform="translate(300 0)"/>
      </g>
     </g>
    </g>
    <g id="ytick_7">
     <g id="text_14">
      <!-- 유행성이하선염 -->
      <g style="fill: #262626" transform="translate(7.2 145.584571) scale(0.11 -0.11)">
       <defs>
        <path id="MalgunGothic-86a" d="M 3200 2784 
Q 2278 2784 1768 3131 
Q 1259 3478 1259 4078 
Q 1259 4669 1775 5025 
Q 2291 5381 3200 5381 
Q 4128 5381 4640 5025 
Q 5153 4669 5153 4078 
Q 5153 3484 4640 3134 
Q 4128 2784 3200 2784 
z
M 3200 4978 
Q 2513 4978 2130 4736 
Q 1747 4494 1747 4078 
Q 1747 3669 2130 3425 
Q 2513 3181 3200 3181 
Q 3888 3181 4270 3425 
Q 4653 3669 4653 4078 
Q 4653 4494 4270 4736 
Q 3888 4978 3200 4978 
z
M 1913 -556 
L 1913 1672 
L 403 1672 
L 403 2094 
L 5997 2094 
L 5997 1672 
L 4488 1672 
L 4488 -556 
L 4019 -556 
L 4019 1672 
L 2381 1672 
L 2381 -556 
L 1913 -556 
z
" transform="scale(0.015625)"/>
        <path id="MalgunGothic-b2d" d="M 5075 1772 
L 5075 3231 
L 4372 3231 
L 4372 1947 
L 3909 1947 
L 3909 5344 
L 4372 5344 
L 4372 3641 
L 5075 3641 
L 5075 5466 
L 5538 5466 
L 5538 1772 
L 5075 1772 
z
M 459 4275 
L 459 4684 
L 1784 4684 
L 1784 5416 
L 2247 5416 
L 2247 4684 
L 3559 4684 
L 3559 4275 
L 459 4275 
z
M 2022 1997 
Q 1431 1997 1070 2284 
Q 709 2572 709 3003 
Q 709 3438 1071 3722 
Q 1434 4006 2022 4006 
Q 2609 4006 2971 3722 
Q 3334 3438 3334 3003 
Q 3334 2569 2976 2283 
Q 2619 1997 2022 1997 
z
M 2022 3622 
Q 1656 3622 1404 3448 
Q 1153 3275 1153 3003 
Q 1153 2738 1406 2563 
Q 1659 2388 2022 2388 
Q 2391 2388 2645 2563 
Q 2900 2738 2900 3003 
Q 2900 3275 2644 3448 
Q 2388 3622 2022 3622 
z
M 3547 -513 
Q 2556 -513 2036 -227 
Q 1516 59 1516 569 
Q 1516 1084 2037 1367 
Q 2559 1650 3547 1650 
Q 4534 1650 5054 1364 
Q 5575 1078 5575 569 
Q 5575 63 5056 -225 
Q 4538 -513 3547 -513 
z
M 3547 1253 
Q 2016 1253 2016 569 
Q 2016 -116 3547 -116 
Q 5081 -116 5081 569 
Q 5081 1253 3547 1253 
z
" transform="scale(0.015625)"/>
        <path id="MalgunGothic-6fd" d="M 4947 1984 
L 4947 3781 
L 3541 3781 
L 3541 4200 
L 4947 4200 
L 4947 5466 
L 5416 5466 
L 5416 1984 
L 4947 1984 
z
M 3653 2328 
Q 3244 2550 2831 2950 
Q 2419 3350 2253 3700 
Q 2075 3303 1659 2858 
Q 1244 2413 819 2175 
L 488 2497 
Q 1134 2806 1571 3393 
Q 2009 3981 2009 4628 
L 2009 5269 
L 2463 5269 
L 2463 4628 
Q 2463 4025 2916 3472 
Q 3369 2919 3969 2669 
L 3653 2328 
z
M 3566 -475 
Q 2622 -475 2108 -148 
Q 1594 178 1594 697 
Q 1594 1216 2106 1539 
Q 2619 1863 3566 1863 
Q 4513 1863 5025 1539 
Q 5538 1216 5538 697 
Q 5538 178 5023 -148 
Q 4509 -475 3566 -475 
z
M 3566 1466 
Q 2850 1466 2472 1248 
Q 2094 1031 2094 697 
Q 2094 359 2473 143 
Q 2853 -72 3566 -72 
Q 4275 -72 4656 142 
Q 5038 356 5038 697 
Q 5038 1034 4659 1250 
Q 4281 1466 3566 1466 
z
" transform="scale(0.015625)"/>
        <path id="MalgunGothic-887" d="M 4947 -563 
L 4947 5466 
L 5416 5466 
L 5416 -563 
L 4947 -563 
z
M 2284 959 
Q 1597 959 1173 1514 
Q 750 2069 750 3016 
Q 750 3975 1169 4522 
Q 1588 5069 2284 5069 
Q 2978 5069 3403 4522 
Q 3828 3975 3828 3016 
Q 3828 2063 3401 1511 
Q 2975 959 2284 959 
z
M 2284 4653 
Q 1803 4653 1503 4204 
Q 1203 3756 1203 3016 
Q 1203 2278 1506 1826 
Q 1809 1375 2284 1375 
Q 2756 1375 3061 1828 
Q 3366 2281 3366 3016 
Q 3366 3759 3067 4206 
Q 2769 4653 2284 4653 
z
" transform="scale(0.015625)"/>
        <path id="MalgunGothic-b1c" d="M 5094 2278 
L 5094 -563 
L 4628 -563 
L 4628 5466 
L 5094 5466 
L 5094 2694 
L 6113 2694 
L 6113 2278 
L 5094 2278 
z
M 469 4084 
L 469 4506 
L 2022 4506 
L 2022 5466 
L 2491 5466 
L 2491 4506 
L 4050 4506 
L 4050 4084 
L 469 4084 
z
M 2253 934 
Q 1588 934 1166 1318 
Q 744 1703 744 2272 
Q 744 2850 1166 3233 
Q 1588 3616 2259 3616 
Q 2928 3616 3351 3231 
Q 3775 2847 3775 2266 
Q 3775 1694 3351 1314 
Q 2928 934 2253 934 
z
M 2259 3219 
Q 1797 3219 1500 2941 
Q 1203 2663 1203 2272 
Q 1203 1884 1501 1607 
Q 1800 1331 2259 1331 
Q 2719 1331 3017 1607 
Q 3316 1884 3316 2272 
Q 3316 2663 3019 2941 
Q 2722 3219 2259 3219 
z
" transform="scale(0.015625)"/>
        <path id="MalgunGothic-6f4" d="M 4878 1063 
L 4878 3653 
L 3469 3653 
L 3469 4072 
L 4878 4072 
L 4878 5466 
L 5344 5466 
L 5344 1063 
L 4878 1063 
z
M 3675 2069 
Q 3228 2344 2829 2776 
Q 2431 3209 2266 3566 
Q 2091 3150 1662 2648 
Q 1234 2147 819 1913 
L 481 2234 
Q 1125 2559 1573 3198 
Q 2022 3838 2022 4494 
L 2022 5269 
L 2478 5269 
L 2478 4494 
Q 2478 3894 2943 3286 
Q 3409 2678 3988 2406 
L 3675 2069 
z
M 1631 -366 
L 1631 1550 
L 2100 1550 
L 2100 44 
L 5503 44 
L 5503 -366 
L 1631 -366 
z
" transform="scale(0.015625)"/>
       </defs>
       <use xlink:href="#MalgunGothic-86a"/>
       <use xlink:href="#MalgunGothic-b2d" transform="translate(100 0)"/>
       <use xlink:href="#MalgunGothic-6fd" transform="translate(200 0)"/>
       <use xlink:href="#MalgunGothic-887" transform="translate(300 0)"/>
       <use xlink:href="#MalgunGothic-b1c" transform="translate(400 0)"/>
       <use xlink:href="#MalgunGothic-6f4" transform="translate(500 0)"/>
       <use xlink:href="#MalgunGothic-80d" transform="translate(600 0)"/>
      </g>
     </g>
    </g>
    <g id="ytick_8">
     <g id="text_15">
      <!-- 수두 -->
      <g style="fill: #262626" transform="translate(62.2 101.954521) scale(0.11 -0.11)">
       <defs>
        <path id="MalgunGothic-739" d="M 5491 2994 
Q 4750 3097 4078 3498 
Q 3406 3900 3200 4275 
Q 2975 3891 2309 3491 
Q 1644 3091 922 2956 
L 634 3347 
Q 1559 3450 2261 3942 
Q 2963 4434 2963 5013 
L 2963 5275 
L 3431 5275 
L 3431 5013 
Q 3431 4431 4118 3948 
Q 4806 3466 5766 3378 
L 5491 2994 
z
M 3431 1838 
L 3431 -563 
L 2963 -563 
L 2963 1838 
L 403 1838 
L 403 2253 
L 5997 2253 
L 5997 1838 
L 3431 1838 
z
" transform="scale(0.015625)"/>
        <path id="MalgunGothic-47f" d="M 1306 2969 
L 1306 5247 
L 5094 5247 
L 5094 4831 
L 1772 4831 
L 1772 3384 
L 5191 3384 
L 5191 2969 
L 1306 2969 
z
M 3438 1716 
L 3438 -556 
L 2963 -556 
L 2963 1716 
L 403 1716 
L 403 2131 
L 5997 2131 
L 5997 1716 
L 3438 1716 
z
" transform="scale(0.015625)"/>
       </defs>
       <use xlink:href="#MalgunGothic-739"/>
       <use xlink:href="#MalgunGothic-47f" transform="translate(100 0)"/>
      </g>
     </g>
    </g>
   </g>
   <g id="patch_3">
    <path d="M 93.7 416.461091 
L 93.888616 416.461091 
L 93.888616 401.682682 
L 93.7 401.682682 
z
" clip-path="url(#p5b46e334f7)" style="fill: #cedffe; stroke: #2e4780; stroke-width: 0.8; stroke-linejoin: miter"/>
   </g>
   <g id="patch_4">
    <path d="M 93.7 372.995182 
L 96.78762 372.995182 
L 96.78762 358.216773 
L 93.7 358.216773 
z
" clip-path="url(#p5b46e334f7)" style="fill: #cedffe; stroke: #2e4780; stroke-width: 0.8; stroke-linejoin: miter"/>
   </g>
   <g id="patch_5">
    <path d="M 93.7 329.529273 
L 97.927069 329.529273 
L 97.927069 314.750864 
L 93.7 314.750864 
z
" clip-path="url(#p5b46e334f7)" style="fill: #cedffe; stroke: #2e4780; stroke-width: 0.8; stroke-linejoin: miter"/>
   </g>
   <g id="patch_6">
    <path d="M 93.7 286.063364 
L 164.234687 286.063364 
L 164.234687 271.284955 
L 93.7 271.284955 
z
" clip-path="url(#p5b46e334f7)" style="fill: #cedffe; stroke: #2e4780; stroke-width: 0.8; stroke-linejoin: miter"/>
   </g>
   <g id="patch_7">
    <path d="M 93.7 242.597455 
L 149.146687 242.597455 
L 149.146687 227.819045 
L 93.7 227.819045 
z
" clip-path="url(#p5b46e334f7)" style="fill: #cedffe; stroke: #2e4780; stroke-width: 0.8; stroke-linejoin: miter"/>
   </g>
   <g id="patch_8">
    <path d="M 93.7 199.131545 
L 99.085895 199.131545 
L 99.085895 184.353136 
L 93.7 184.353136 
z
" clip-path="url(#p5b46e334f7)" style="fill: #cedffe; stroke: #2e4780; stroke-width: 0.8; stroke-linejoin: miter"/>
   </g>
   <g id="patch_9">
    <path d="M 93.7 155.665636 
L 226.648544 155.665636 
L 226.648544 140.887227 
L 93.7 140.887227 
z
" clip-path="url(#p5b46e334f7)" style="fill: #cedffe; stroke: #2e4780; stroke-width: 0.8; stroke-linejoin: miter"/>
   </g>
   <g id="patch_10">
    <path d="M 93.7 112.199727 
L 625.128571 112.199727 
L 625.128571 97.421318 
L 93.7 97.421318 
z
" clip-path="url(#p5b46e334f7)" style="fill: #cedffe; stroke: #2e4780; stroke-width: 0.8; stroke-linejoin: miter"/>
   </g>
   <g id="patch_11">
    <path d="M 93.7 401.682682 
L 93.738605 401.682682 
L 93.738605 386.904273 
L 93.7 386.904273 
z
" clip-path="url(#p5b46e334f7)" style="fill: #f0986e; stroke: #804126; stroke-width: 0.8; stroke-linejoin: miter"/>
   </g>
   <g id="patch_12">
    <path d="M 93.7 358.216773 
L 93.77721 358.216773 
L 93.77721 343.438364 
L 93.7 343.438364 
z
" clip-path="url(#p5b46e334f7)" style="fill: #f0986e; stroke: #804126; stroke-width: 0.8; stroke-linejoin: miter"/>
   </g>
   <g id="patch_13">
    <path d="M 93.7 314.750864 
L 100.533077 314.750864 
L 100.533077 299.972455 
L 93.7 299.972455 
z
" clip-path="url(#p5b46e334f7)" style="fill: #f0986e; stroke: #804126; stroke-width: 0.8; stroke-linejoin: miter"/>
   </g>
   <g id="patch_14">
    <path d="M 93.7 271.284955 
L 106.825686 271.284955 
L 106.825686 256.506545 
L 93.7 256.506545 
z
" clip-path="url(#p5b46e334f7)" style="fill: #f0986e; stroke: #804126; stroke-width: 0.8; stroke-linejoin: miter"/>
   </g>
   <g id="patch_15">
    <path d="M 93.7 227.819045 
L 119.719741 227.819045 
L 119.719741 213.040636 
L 93.7 213.040636 
z
" clip-path="url(#p5b46e334f7)" style="fill: #f0986e; stroke: #804126; stroke-width: 0.8; stroke-linejoin: miter"/>
   </g>
   <g id="patch_16">
    <path d="M 93.7 184.353136 
L 136.358478 184.353136 
L 136.358478 169.574727 
L 93.7 169.574727 
z
" clip-path="url(#p5b46e334f7)" style="fill: #f0986e; stroke: #804126; stroke-width: 0.8; stroke-linejoin: miter"/>
   </g>
   <g id="patch_17">
    <path d="M 93.7 140.887227 
L 136.860342 140.887227 
L 136.860342 126.108818 
L 93.7 126.108818 
z
" clip-path="url(#p5b46e334f7)" style="fill: #f0986e; stroke: #804126; stroke-width: 0.8; stroke-linejoin: miter"/>
   </g>
   <g id="patch_18">
    <path d="M 93.7 97.421318 
L 206.658106 97.421318 
L 206.658106 82.642909 
L 93.7 82.642909 
z
" clip-path="url(#p5b46e334f7)" style="fill: #f0986e; stroke: #804126; stroke-width: 0.8; stroke-linejoin: miter"/>
   </g>
   <g id="patch_19">
    <path d="M 93.7 433.152 
L 93.7 65.952 
" style="fill: none; stroke: #d7dbe7; stroke-width: 1.25; stroke-linejoin: miter; stroke-linecap: square"/>
   </g>
   <g id="patch_20">
    <path d="M 93.7 433.152 
L 651.7 433.152 
" style="fill: none; stroke: #d7dbe7; stroke-width: 1.25; stroke-linejoin: miter; stroke-linecap: square"/>
   </g>
   <g id="legend_1">
    <g id="patch_21">
     <path d="M 103.6 50.177852 
L 125.6 50.177852 
L 125.6 42.477852 
L 103.6 42.477852 
z
" style="fill: #cedffe; stroke: #2e4780; stroke-width: 0.8; stroke-linejoin: miter"/>
    </g>
    <g id="text_16">
     <!-- 전체 인구 -->
     <g style="fill: #262626" transform="translate(134.4 50.177852) scale(0.11 -0.11)">
      <defs>
       <path id="MalgunGothic-8b7" d="M 4878 1178 
L 4878 3525 
L 3469 3525 
L 3469 3944 
L 4878 3944 
L 4878 5466 
L 5344 5466 
L 5344 1178 
L 4878 1178 
z
M 3675 2069 
Q 3228 2344 2829 2776 
Q 2431 3209 2266 3566 
Q 2091 3150 1662 2648 
Q 1234 2147 819 1913 
L 481 2234 
Q 1125 2559 1573 3198 
Q 2022 3838 2022 4494 
L 2022 4716 
L 684 4716 
L 684 5141 
L 3788 5141 
L 3788 4716 
L 2478 4716 
L 2478 4494 
Q 2478 3894 2943 3286 
Q 3409 2678 3988 2406 
L 3675 2069 
z
M 1631 -366 
L 1631 1606 
L 2100 1606 
L 2100 44 
L 5503 44 
L 5503 -366 
L 1631 -366 
z
" transform="scale(0.015625)"/>
       <path id="MalgunGothic-991" d="M 5069 -563 
L 5069 5466 
L 5544 5466 
L 5544 -563 
L 5069 -563 
z
M 3163 934 
Q 2825 1197 2473 1659 
Q 2122 2122 1991 2491 
Q 1878 2109 1526 1593 
Q 1175 1078 825 788 
L 428 1100 
Q 956 1441 1351 2155 
Q 1747 2869 1747 3559 
L 1747 4141 
L 594 4141 
L 594 4556 
L 1741 4556 
L 1741 5369 
L 2209 5369 
L 2209 4556 
L 3359 4556 
L 3359 4141 
L 2216 4141 
L 2216 3541 
Q 2216 2881 2616 2226 
Q 3016 1572 3541 1259 
L 3163 934 
z
M 4000 -378 
L 4000 2791 
L 2931 2791 
L 2931 3206 
L 4000 3206 
L 4000 5344 
L 4459 5344 
L 4459 -378 
L 4000 -378 
z
" transform="scale(0.015625)"/>
      </defs>
      <use xlink:href="#MalgunGothic-8b7"/>
      <use xlink:href="#MalgunGothic-991" transform="translate(100 0)"/>
      <use xlink:href="#MalgunGothic-3" transform="translate(200 0)"/>
      <use xlink:href="#MalgunGothic-889" transform="translate(235.15625 0)"/>
      <use xlink:href="#MalgunGothic-2f1" transform="translate(335.15625 0)"/>
     </g>
    </g>
    <g id="patch_22">
     <path d="M 204.267188 50.177852 
L 226.267188 50.177852 
L 226.267188 42.477852 
L 204.267188 42.477852 
z
" style="fill: #f0986e; stroke: #804126; stroke-width: 0.8; stroke-linejoin: miter"/>
    </g>
    <g id="text_17">
     <!-- 20~24세 남성 -->
     <g style="fill: #262626" transform="translate(235.067188 50.177852) scale(0.11 -0.11)">
      <defs>
       <path id="MalgunGothic-61" d="M 3819 2400 
Q 3794 1925 3559 1670 
Q 3325 1416 2925 1416 
Q 2572 1416 2075 1772 
Q 1766 1988 1563 1988 
Q 1106 1988 1094 1419 
L 675 1419 
Q 691 1888 933 2145 
Q 1175 2403 1566 2403 
Q 1903 2403 2319 2116 
Q 2747 1825 2953 1825 
Q 3153 1825 3273 1983 
Q 3394 2141 3400 2400 
L 3819 2400 
z
" transform="scale(0.015625)"/>
       <path id="MalgunGothic-6ff" d="M 5038 -563 
L 5038 5466 
L 5503 5466 
L 5503 -563 
L 5038 -563 
z
M 3944 -378 
L 3944 2975 
L 2894 2975 
L 2894 3391 
L 3944 3391 
L 3944 5344 
L 4403 5344 
L 4403 -378 
L 3944 -378 
z
M 3116 850 
Q 2306 1647 1984 2734 
Q 1881 2291 1529 1722 
Q 1178 1153 775 769 
L 409 1063 
Q 941 1438 1350 2248 
Q 1759 3059 1759 3834 
L 1759 5025 
L 2222 5025 
L 2222 3828 
Q 2222 3075 2589 2328 
Q 2956 1581 3469 1153 
L 3116 850 
z
" transform="scale(0.015625)"/>
       <path id="MalgunGothic-3a7" d="M 5125 3578 
L 5125 2119 
L 4659 2119 
L 4659 5466 
L 5125 5466 
L 5125 4000 
L 6034 4000 
L 6034 3578 
L 5125 3578 
z
M 4263 2834 
Q 3741 2694 916 2694 
L 916 5222 
L 1381 5222 
L 1381 3109 
L 1794 3109 
Q 3553 3109 4206 3238 
L 4263 2834 
z
M 1466 -422 
L 1466 1784 
L 5125 1784 
L 5125 -422 
L 1466 -422 
z
M 4666 1369 
L 1925 1369 
L 1925 -6 
L 4666 -6 
L 4666 1369 
z
" transform="scale(0.015625)"/>
      </defs>
      <use xlink:href="#MalgunGothic-15"/>
      <use xlink:href="#MalgunGothic-13" transform="translate(55.078125 0)"/>
      <use xlink:href="#MalgunGothic-61" transform="translate(110.15625 0)"/>
      <use xlink:href="#MalgunGothic-15" transform="translate(180.21875 0)"/>
      <use xlink:href="#MalgunGothic-17" transform="translate(235.296875 0)"/>
      <use xlink:href="#MalgunGothic-6ff" transform="translate(290.375 0)"/>
      <use xlink:href="#MalgunGothic-3" transform="translate(390.375 0)"/>
      <use xlink:href="#MalgunGothic-3a7" transform="translate(425.53125 0)"/>
      <use xlink:href="#MalgunGothic-6fd" transform="translate(525.53125 0)"/>
     </g>
    </g>
   </g>
  </g>
  <g id="text_18">
   <!-- 20~24세 남성에서 상대적으로 두드러지는 감염병 -->
   <g style="fill: #1f2430" transform="translate(93.7 20.010937) scale(0.15 -0.15)">
    <defs>
     <path id="MalgunGothicBold-14" d="M 1322 734 
L 3272 734 
L 3272 0 
L 400 0 
L 400 347 
Q 400 719 526 1033 
Q 653 1347 889 1620 
Q 1125 1894 1881 2459 
Q 2175 2678 2303 2878 
Q 2431 3078 2431 3325 
Q 2431 3631 2251 3801 
Q 2072 3972 1694 3972 
Q 1103 3972 559 3503 
L 559 4288 
Q 1116 4675 1819 4675 
Q 2531 4675 2920 4328 
Q 3309 3981 3309 3369 
Q 3309 3053 3207 2809 
Q 3106 2566 2939 2367 
Q 2772 2169 2555 1998 
Q 2338 1828 2109 1659 
Q 1688 1347 1505 1125 
Q 1322 903 1322 734 
z
" transform="scale(0.015625)"/>
     <path id="MalgunGothicBold-12" d="M 241 2222 
Q 241 3422 670 4048 
Q 1100 4675 1919 4675 
Q 3475 4675 3475 2328 
Q 3475 1172 3051 545 
Q 2628 -81 1825 -81 
Q 241 -81 241 2222 
z
M 1125 2244 
Q 1125 600 1863 600 
Q 2584 600 2584 2288 
Q 2584 3997 1878 3997 
Q 1125 3997 1125 2244 
z
" transform="scale(0.015625)"/>
     <path id="MalgunGothicBold-60" d="M 3966 2456 
Q 3944 1928 3684 1633 
Q 3425 1338 2994 1338 
Q 2656 1338 2163 1641 
Q 1822 1847 1656 1847 
Q 1247 1847 1228 1319 
L 638 1319 
Q 659 1853 925 2145 
Q 1191 2438 1622 2438 
Q 1969 2438 2381 2181 
Q 2794 1922 2975 1922 
Q 3153 1922 3262 2067 
Q 3372 2213 3378 2456 
L 3966 2456 
z
" transform="scale(0.015625)"/>
     <path id="MalgunGothicBold-16" d="M 2969 4600 
L 2969 1653 
L 3519 1653 
L 3519 1016 
L 2969 1016 
L 2969 0 
L 2163 0 
L 2163 1016 
L 159 1016 
L 159 1688 
Q 788 2406 1325 3189 
Q 1863 3972 2147 4600 
L 2969 4600 
z
M 900 1653 
L 2163 1653 
L 2163 3434 
Q 1972 3094 1622 2592 
Q 1272 2091 900 1653 
z
" transform="scale(0.015625)"/>
     <path id="MalgunGothicBold-6fc" d="M 4872 -563 
L 4872 5466 
L 5650 5466 
L 5650 -563 
L 4872 -563 
z
M 3653 -384 
L 3653 2913 
L 2784 2913 
L 2784 3572 
L 3653 3572 
L 3653 5344 
L 4428 5344 
L 4428 -384 
L 3653 -384 
z
M 2900 878 
Q 2241 1425 1919 2094 
Q 1778 1759 1443 1346 
Q 1109 934 819 722 
L 256 1228 
Q 1544 2034 1544 3659 
L 1544 5056 
L 2291 5056 
L 2291 3641 
Q 2291 2184 3450 1422 
L 2900 878 
z
" transform="scale(0.015625)"/>
     <path id="MalgunGothicBold-3" transform="scale(0.015625)"/>
     <path id="MalgunGothicBold-3a4" d="M 5259 3341 
L 5259 2119 
L 4475 2119 
L 4475 5466 
L 5259 5466 
L 5259 4000 
L 6175 4000 
L 6175 3341 
L 5259 3341 
z
M 4219 2778 
Q 3706 2669 3159 2644 
Q 2613 2619 872 2619 
L 872 5216 
L 1650 5216 
L 1650 3278 
Q 3397 3278 4116 3425 
L 4219 2778 
z
M 1472 -434 
L 1472 1863 
L 5259 1863 
L 5259 -434 
L 1472 -434 
z
M 4481 1203 
L 2253 1203 
L 2253 219 
L 4481 219 
L 4481 1203 
z
" transform="scale(0.015625)"/>
     <path id="MalgunGothicBold-6fa" d="M 4788 2016 
L 4788 3738 
L 3494 3738 
L 3494 4403 
L 4788 4403 
L 4788 5466 
L 5556 5466 
L 5556 2016 
L 4788 2016 
z
M 3591 2209 
Q 2675 2647 2216 3372 
Q 2047 3038 1620 2617 
Q 1194 2197 872 2028 
L 300 2572 
Q 963 2866 1384 3408 
Q 1806 3950 1806 4525 
L 1806 5275 
L 2584 5275 
L 2584 4550 
Q 2584 3972 3021 3481 
Q 3459 2991 4091 2816 
L 3591 2209 
z
M 3659 -538 
Q 2725 -538 2201 -189 
Q 1678 159 1678 716 
Q 1678 1269 2203 1620 
Q 2728 1972 3659 1972 
Q 4594 1972 5122 1619 
Q 5650 1266 5650 716 
Q 5650 159 5123 -189 
Q 4597 -538 3659 -538 
z
M 3659 1325 
Q 3063 1325 2767 1156 
Q 2472 988 2472 716 
Q 2472 444 2770 276 
Q 3069 109 3659 109 
Q 4253 109 4554 275 
Q 4856 441 4856 716 
Q 4856 984 4557 1154 
Q 4259 1325 3659 1325 
z
" transform="scale(0.015625)"/>
     <path id="MalgunGothicBold-7fb" d="M 4922 -563 
L 4922 5466 
L 5678 5466 
L 5678 -563 
L 4922 -563 
z
M 3169 3353 
L 3775 3353 
L 3775 5344 
L 4513 5344 
L 4513 -384 
L 3775 -384 
L 3775 2688 
L 3175 2688 
Q 3122 1800 2772 1351 
Q 2422 903 1819 903 
Q 1150 903 798 1439 
Q 447 1975 447 2988 
Q 447 3997 800 4536 
Q 1153 5075 1819 5075 
Q 2409 5075 2757 4642 
Q 3106 4209 3169 3353 
z
M 1819 4409 
Q 1203 4409 1203 2988 
Q 1203 1569 1819 1569 
Q 2113 1569 2272 1934 
Q 2431 2300 2431 2988 
Q 2431 3672 2273 4040 
Q 2116 4409 1819 4409 
z
" transform="scale(0.015625)"/>
     <path id="MalgunGothicBold-6ed" d="M 4794 -563 
L 4794 2981 
L 3488 2981 
L 3488 3641 
L 4794 3641 
L 4794 5466 
L 5575 5466 
L 5575 -563 
L 4794 -563 
z
M 3609 934 
Q 2681 1578 2228 2444 
Q 1731 1463 838 831 
L 231 1369 
Q 925 1725 1381 2434 
Q 1838 3144 1838 3891 
L 1838 5063 
L 2619 5063 
L 2619 3909 
Q 2619 3178 3066 2498 
Q 3513 1819 4159 1544 
L 3609 934 
z
" transform="scale(0.015625)"/>
     <path id="MalgunGothicBold-6d5" d="M 5259 3328 
L 5259 1947 
L 4475 1947 
L 4475 5466 
L 5259 5466 
L 5259 3988 
L 6175 3988 
L 6175 3328 
L 5259 3328 
z
M 3591 2209 
Q 2653 2656 2216 3353 
Q 2053 3028 1625 2615 
Q 1197 2203 872 2028 
L 300 2591 
Q 969 2884 1387 3418 
Q 1806 3953 1806 4525 
L 1806 5275 
L 2591 5275 
L 2591 4550 
Q 2591 3975 3020 3494 
Q 3450 3013 4091 2834 
L 3591 2209 
z
M 3347 -538 
Q 2388 -538 1863 -208 
Q 1338 122 1338 666 
Q 1338 1206 1869 1531 
Q 2400 1856 3347 1856 
Q 4297 1856 4826 1532 
Q 5356 1209 5356 666 
Q 5356 119 4829 -209 
Q 4303 -538 3347 -538 
z
M 3347 1203 
Q 2150 1203 2150 666 
Q 2150 116 3347 116 
Q 4550 116 4550 666 
Q 4550 1203 3347 1203 
z
" transform="scale(0.015625)"/>
     <path id="MalgunGothicBold-43b" d="M 4872 -563 
L 4872 2450 
L 4325 2450 
L 4325 -384 
L 3553 -384 
L 3553 5344 
L 4325 5344 
L 4325 3109 
L 4872 3109 
L 4872 5466 
L 5650 5466 
L 5650 -563 
L 4872 -563 
z
M 3194 1216 
Q 2278 1113 634 1113 
L 634 4953 
L 3009 4953 
L 3009 4294 
L 1403 4294 
L 1403 1772 
L 1750 1772 
Q 2484 1772 3138 1856 
L 3194 1216 
z
" transform="scale(0.015625)"/>
     <path id="MalgunGothicBold-8b3" d="M 4794 1966 
L 4794 3438 
L 3641 3438 
L 3641 4072 
L 4794 4072 
L 4794 5466 
L 5563 5466 
L 5563 1966 
L 4794 1966 
z
M 3603 2059 
Q 2719 2500 2259 3163 
Q 2100 2834 1695 2440 
Q 1291 2047 897 1856 
L 341 2406 
Q 972 2647 1408 3172 
Q 1844 3697 1844 4250 
L 1844 4556 
L 603 4556 
L 603 5209 
L 3841 5209 
L 3841 4556 
L 2631 4556 
L 2631 4275 
Q 2631 3741 3039 3303 
Q 3447 2866 4103 2656 
L 3603 2059 
z
M 4781 -563 
L 4781 1050 
L 1544 1050 
L 1544 1709 
L 5563 1709 
L 5563 -563 
L 4781 -563 
z
" transform="scale(0.015625)"/>
     <path id="MalgunGothicBold-870" d="M 3200 1953 
Q 2303 1953 1711 2368 
Q 1119 2784 1119 3506 
Q 1119 4225 1708 4640 
Q 2297 5056 3200 5056 
Q 4094 5056 4684 4640 
Q 5275 4225 5275 3506 
Q 5275 2784 4686 2368 
Q 4097 1953 3200 1953 
z
M 3200 4409 
Q 2609 4409 2264 4165 
Q 1919 3922 1919 3506 
Q 1919 3084 2264 2842 
Q 2609 2600 3200 2600 
Q 3788 2600 4131 2844 
Q 4475 3088 4475 3506 
Q 4475 3922 4133 4165 
Q 3791 4409 3200 4409 
z
M 403 313 
L 403 959 
L 5997 959 
L 5997 313 
L 403 313 
z
" transform="scale(0.015625)"/>
     <path id="MalgunGothicBold-538" d="M 403 250 
L 403 903 
L 2809 903 
L 2809 1747 
L 1197 1747 
L 1197 3688 
L 4391 3688 
L 4391 4294 
L 1209 4294 
L 1209 4941 
L 5178 4941 
L 5178 3059 
L 1984 3059 
L 1984 2394 
L 5338 2394 
L 5338 1747 
L 3591 1747 
L 3591 903 
L 5997 903 
L 5997 250 
L 403 250 
z
" transform="scale(0.015625)"/>
     <path id="MalgunGothicBold-47c" d="M 1269 2913 
L 1269 5247 
L 5153 5247 
L 5153 4588 
L 2053 4588 
L 2053 3572 
L 5191 3572 
L 5191 2913 
L 1269 2913 
z
M 3591 1569 
L 3591 -556 
L 2803 -556 
L 2803 1569 
L 403 1569 
L 403 2228 
L 5997 2228 
L 5997 1569 
L 3591 1569 
z
" transform="scale(0.015625)"/>
     <path id="MalgunGothicBold-493" d="M 1294 2175 
L 1294 4934 
L 5106 4934 
L 5106 4281 
L 2081 4281 
L 2081 2828 
L 5197 2828 
L 5197 2175 
L 1294 2175 
z
M 403 325 
L 403 978 
L 5997 978 
L 5997 325 
L 403 325 
z
" transform="scale(0.015625)"/>
     <path id="MalgunGothicBold-519" d="M 4800 -563 
L 4800 2688 
L 3763 2688 
L 3763 3353 
L 4800 3353 
L 4800 5466 
L 5575 5466 
L 5575 -563 
L 4800 -563 
z
M 3994 928 
Q 3247 781 691 781 
L 691 3328 
L 2731 3328 
L 2731 4341 
L 703 4341 
L 703 5000 
L 3506 5000 
L 3506 2675 
L 1466 2675 
L 1466 1434 
Q 3166 1409 3891 1563 
L 3994 928 
z
" transform="scale(0.015625)"/>
     <path id="MalgunGothicBold-90c" d="M 4672 -563 
L 4672 5466 
L 5441 5466 
L 5441 -563 
L 4672 -563 
z
M 3622 928 
Q 2750 1556 2266 2388 
Q 1647 1297 916 813 
L 341 1313 
Q 916 1594 1392 2286 
Q 1869 2978 1869 3659 
L 1869 4300 
L 563 4300 
L 563 4959 
L 3928 4959 
L 3928 4300 
L 2650 4300 
L 2650 3681 
Q 2650 3041 3103 2419 
Q 3556 1797 4141 1503 
L 3622 928 
z
" transform="scale(0.015625)"/>
     <path id="MalgunGothicBold-412" d="M 1253 3200 
L 1253 5166 
L 2041 5166 
L 2041 3866 
L 5228 3866 
L 5228 3200 
L 1253 3200 
z
M 403 1906 
L 403 2566 
L 5997 2566 
L 5997 1906 
L 403 1906 
z
M 1222 -306 
L 1222 1478 
L 2009 1478 
L 2009 353 
L 5253 353 
L 5253 -306 
L 1222 -306 
z
" transform="scale(0.015625)"/>
     <path id="MalgunGothicBold-280" d="M 5259 3328 
L 5259 2053 
L 4475 2053 
L 4475 5466 
L 5259 5466 
L 5259 3988 
L 6175 3988 
L 6175 3328 
L 5259 3328 
z
M 3675 5203 
Q 3572 4138 2861 3292 
Q 2150 2447 966 1941 
L 422 2547 
Q 1253 2816 1883 3362 
Q 2513 3909 2706 4544 
L 775 4544 
L 775 5203 
L 3675 5203 
z
M 1472 -434 
L 1472 1800 
L 5259 1800 
L 5259 -434 
L 1472 -434 
z
M 4481 1141 
L 2253 1141 
L 2253 219 
L 4481 219 
L 4481 1141 
z
" transform="scale(0.015625)"/>
     <path id="MalgunGothicBold-80a" d="M 3425 2700 
Q 2950 2181 2188 2181 
Q 1497 2181 1033 2618 
Q 569 3056 569 3763 
Q 569 4459 1028 4901 
Q 1488 5344 2188 5344 
Q 3056 5344 3525 4691 
L 4788 4691 
L 4788 5466 
L 5563 5466 
L 5563 1966 
L 4788 1966 
L 4788 2700 
L 3425 2700 
z
M 2188 4697 
Q 1809 4697 1576 4447 
Q 1344 4197 1344 3763 
Q 1344 3331 1576 3082 
Q 1809 2834 2188 2834 
Q 2569 2834 2801 3082 
Q 3034 3331 3034 3763 
Q 3034 4200 2801 4448 
Q 2569 4697 2188 4697 
z
M 3750 3334 
L 4788 3334 
L 4788 4056 
L 3775 4056 
Q 3803 3916 3803 3763 
Q 3803 3547 3750 3334 
z
M 1797 -434 
L 1797 1716 
L 5569 1716 
L 5569 -434 
L 1797 -434 
z
M 4800 1063 
L 2566 1063 
L 2566 219 
L 4800 219 
L 4800 1063 
z
" transform="scale(0.015625)"/>
     <path id="MalgunGothicBold-638" d="M 716 2344 
L 716 5269 
L 1484 5269 
L 1484 4397 
L 2841 4397 
L 2841 5269 
L 3616 5269 
L 3616 4703 
L 4788 4703 
L 4788 5466 
L 5556 5466 
L 5556 2003 
L 4788 2003 
L 4788 2834 
L 3616 2834 
L 3616 2344 
L 716 2344 
z
M 3616 3456 
L 4788 3456 
L 4788 4084 
L 3616 4084 
L 3616 3456 
z
M 2841 3738 
L 1484 3738 
L 1484 2994 
L 2841 2994 
L 2841 3738 
z
M 3659 -538 
Q 2725 -538 2201 -189 
Q 1678 159 1678 716 
Q 1678 1269 2203 1620 
Q 2728 1972 3659 1972 
Q 4594 1972 5122 1619 
Q 5650 1266 5650 716 
Q 5650 159 5123 -189 
Q 4597 -538 3659 -538 
z
M 3659 1325 
Q 3063 1325 2767 1156 
Q 2472 988 2472 716 
Q 2472 444 2770 276 
Q 3069 109 3659 109 
Q 4253 109 4554 275 
Q 4856 441 4856 716 
Q 4856 984 4557 1154 
Q 4259 1325 3659 1325 
z
" transform="scale(0.015625)"/>
    </defs>
    <use xlink:href="#MalgunGothicBold-14"/>
    <use xlink:href="#MalgunGothicBold-12" transform="translate(57.953125 0)"/>
    <use xlink:href="#MalgunGothicBold-60" transform="translate(115.90625 0)"/>
    <use xlink:href="#MalgunGothicBold-14" transform="translate(187.828125 0)"/>
    <use xlink:href="#MalgunGothicBold-16" transform="translate(245.78125 0)"/>
    <use xlink:href="#MalgunGothicBold-6fc" transform="translate(303.734375 0)"/>
    <use xlink:href="#MalgunGothicBold-3" transform="translate(403.734375 0)"/>
    <use xlink:href="#MalgunGothicBold-3a4" transform="translate(438.890625 0)"/>
    <use xlink:href="#MalgunGothicBold-6fa" transform="translate(538.890625 0)"/>
    <use xlink:href="#MalgunGothicBold-7fb" transform="translate(638.890625 0)"/>
    <use xlink:href="#MalgunGothicBold-6ed" transform="translate(738.890625 0)"/>
    <use xlink:href="#MalgunGothicBold-3" transform="translate(838.890625 0)"/>
    <use xlink:href="#MalgunGothicBold-6d5" transform="translate(874.046875 0)"/>
    <use xlink:href="#MalgunGothicBold-43b" transform="translate(974.046875 0)"/>
    <use xlink:href="#MalgunGothicBold-8b3" transform="translate(1074.046875 0)"/>
    <use xlink:href="#MalgunGothicBold-870" transform="translate(1174.046875 0)"/>
    <use xlink:href="#MalgunGothicBold-538" transform="translate(1274.046875 0)"/>
    <use xlink:href="#MalgunGothicBold-3" transform="translate(1374.046875 0)"/>
    <use xlink:href="#MalgunGothicBold-47c" transform="translate(1409.203125 0)"/>
    <use xlink:href="#MalgunGothicBold-493" transform="translate(1509.203125 0)"/>
    <use xlink:href="#MalgunGothicBold-519" transform="translate(1609.203125 0)"/>
    <use xlink:href="#MalgunGothicBold-90c" transform="translate(1709.203125 0)"/>
    <use xlink:href="#MalgunGothicBold-412" transform="translate(1809.203125 0)"/>
    <use xlink:href="#MalgunGothicBold-3" transform="translate(1909.203125 0)"/>
    <use xlink:href="#MalgunGothicBold-280" transform="translate(1944.359375 0)"/>
    <use xlink:href="#MalgunGothicBold-80a" transform="translate(2044.359375 0)"/>
    <use xlink:href="#MalgunGothicBold-638" transform="translate(2144.359375 0)"/>
   </g>
  </g>
  <g id="text_19">
   <!-- 2016~2023년 합계 발생건수 ÷ KOSIS 인구합계, 전국 기준 -->
   <g style="fill: #6f768a" transform="translate(93.7 37.470281) scale(0.095 -0.095)">
    <defs>
     <path id="MalgunGothic-16" d="M 416 719 
Q 891 344 1478 344 
Q 1959 344 2254 587 
Q 2550 831 2550 1247 
Q 2550 2169 1253 2169 
L 872 2169 
L 872 2591 
L 1234 2591 
Q 2388 2591 2388 3453 
Q 2388 4250 1509 4250 
Q 1022 4250 594 3916 
L 594 4413 
Q 1031 4675 1634 4675 
Q 2184 4675 2539 4372 
Q 2894 4069 2894 3581 
Q 2894 2678 1972 2409 
L 1972 2400 
Q 2469 2356 2764 2053 
Q 3059 1750 3059 1300 
Q 3059 672 2604 297 
Q 2150 -78 1450 -78 
Q 806 -78 416 169 
L 416 719 
z
" transform="scale(0.015625)"/>
     <path id="MalgunGothic-3d7" d="M 4884 1063 
L 4884 3122 
L 3181 3122 
L 3181 3525 
L 4884 3525 
L 4884 4178 
L 3181 4178 
L 3181 4581 
L 4884 4581 
L 4884 5466 
L 5350 5466 
L 5350 1063 
L 4884 1063 
z
M 4231 2169 
Q 3628 2016 1075 2016 
L 1075 5088 
L 1544 5088 
L 1544 2425 
L 1938 2425 
Q 3513 2425 4166 2553 
L 4231 2169 
z
M 1663 -359 
L 1663 1409 
L 2131 1409 
L 2131 56 
L 5575 56 
L 5575 -359 
L 1663 -359 
z
" transform="scale(0.015625)"/>
     <path id="MalgunGothic-b22" d="M 1997 5550 
L 2463 5550 
L 2463 4838 
L 4013 4838 
L 4013 4428 
L 447 4428 
L 447 4838 
L 1997 4838 
L 1997 5550 
z
M 5125 3303 
L 5125 1941 
L 4659 1941 
L 4659 5466 
L 5125 5466 
L 5125 3719 
L 5972 3719 
L 5972 3303 
L 5125 3303 
z
M 2241 1991 
Q 1550 1991 1153 2294 
Q 756 2597 756 3059 
Q 756 3516 1157 3822 
Q 1559 4128 2247 4128 
Q 2934 4128 3336 3822 
Q 3738 3516 3738 3059 
Q 3738 2603 3336 2297 
Q 2934 1991 2241 1991 
z
M 2247 3731 
Q 1766 3731 1491 3539 
Q 1216 3347 1216 3059 
Q 1216 2763 1494 2575 
Q 1772 2388 2247 2388 
Q 2722 2388 3000 2575 
Q 3278 2763 3278 3059 
Q 3278 3347 3003 3539 
Q 2728 3731 2247 3731 
z
M 1416 -500 
L 1416 1606 
L 1875 1606 
L 1875 916 
L 4666 916 
L 4666 1606 
L 5125 1606 
L 5125 -500 
L 1416 -500 
z
M 4666 513 
L 1875 513 
L 1875 -91 
L 4666 -91 
L 4666 513 
z
" transform="scale(0.015625)"/>
     <path id="MalgunGothic-2c3" d="M 5044 -563 
L 5044 5466 
L 5509 5466 
L 5509 -563 
L 5044 -563 
z
M 3938 -366 
L 3938 1925 
L 2700 1925 
L 2700 2344 
L 3938 2344 
L 3938 3616 
L 2869 3616 
Q 2366 1953 813 878 
L 441 1197 
Q 1263 1634 1891 2575 
Q 2519 3516 2584 4531 
L 800 4531 
L 800 4941 
L 3078 4941 
Q 3056 4409 2969 4031 
L 3938 4031 
L 3938 5344 
L 4397 5344 
L 4397 -366 
L 3938 -366 
z
" transform="scale(0.015625)"/>
     <path id="MalgunGothic-2a2" d="M 4947 1056 
L 4947 3078 
L 3559 3078 
L 3559 3494 
L 4947 3494 
L 4947 5466 
L 5416 5466 
L 5416 1056 
L 4947 1056 
z
M 3616 5081 
Q 3488 3963 2752 3100 
Q 2016 2238 856 1734 
L 544 2113 
Q 1509 2459 2201 3142 
Q 2894 3825 3066 4666 
L 941 4666 
L 941 5081 
L 3616 5081 
z
M 1722 -325 
L 1722 1575 
L 2188 1575 
L 2188 97 
L 5588 97 
L 5588 -325 
L 1722 -325 
z
" transform="scale(0.015625)"/>
     <path id="MalgunGothic-11d" d="M 1938 3119 
Q 1938 3266 2033 3364 
Q 2128 3463 2266 3463 
Q 2588 3463 2588 3122 
Q 2588 2975 2492 2879 
Q 2397 2784 2266 2784 
Q 2131 2784 2034 2881 
Q 1938 2978 1938 3119 
z
M 3750 1706 
L 744 1706 
L 744 2122 
L 3750 2122 
L 3750 1706 
z
M 1922 694 
Q 1922 841 2019 942 
Q 2116 1044 2250 1044 
Q 2569 1044 2569 700 
Q 2569 559 2480 467 
Q 2391 375 2250 375 
Q 2116 375 2019 469 
Q 1922 563 1922 694 
z
" transform="scale(0.015625)"/>
     <path id="MalgunGothic-2e" d="M 3769 0 
L 3053 0 
L 1250 2109 
Q 1150 2225 1128 2263 
L 1113 2263 
L 1113 0 
L 609 0 
L 609 4600 
L 1113 4600 
L 1113 2438 
L 1128 2438 
Q 1175 2509 1250 2588 
L 3000 4600 
L 3628 4600 
L 1634 2394 
L 3769 0 
z
" transform="scale(0.015625)"/>
     <path id="MalgunGothic-32" d="M 306 2244 
Q 306 3350 903 4012 
Q 1500 4675 2531 4675 
Q 3481 4675 4062 4029 
Q 4644 3384 4644 2359 
Q 4644 1256 4056 589 
Q 3469 -78 2456 -78 
Q 1488 -78 897 570 
Q 306 1219 306 2244 
z
M 838 2291 
Q 838 1456 1278 918 
Q 1719 381 2453 381 
Q 3238 381 3677 889 
Q 4116 1397 4116 2284 
Q 4116 3188 3692 3700 
Q 3269 4213 2494 4213 
Q 1741 4213 1289 3670 
Q 838 3128 838 2291 
z
" transform="scale(0.015625)"/>
     <path id="MalgunGothic-36" d="M 394 797 
Q 606 613 964 500 
Q 1322 388 1625 388 
Q 2628 388 2628 1116 
Q 2628 1325 2523 1484 
Q 2419 1644 2250 1756 
Q 2081 1869 1547 2144 
Q 903 2475 651 2754 
Q 400 3034 400 3456 
Q 400 4019 858 4347 
Q 1316 4675 1988 4675 
Q 2669 4675 2963 4513 
L 2963 3928 
Q 2563 4206 1922 4206 
Q 1484 4206 1207 4018 
Q 931 3831 931 3500 
Q 931 3200 1126 3011 
Q 1322 2822 1938 2522 
Q 2656 2163 2906 1844 
Q 3156 1525 3156 1153 
Q 3156 556 2725 239 
Q 2294 -78 1531 -78 
Q 1291 -78 927 -1 
Q 563 75 394 188 
L 394 797 
z
" transform="scale(0.015625)"/>
     <path id="MalgunGothic-2c" d="M 1116 0 
L 613 0 
L 613 4600 
L 1116 4600 
L 1116 0 
z
" transform="scale(0.015625)"/>
     <path id="MalgunGothic-f" d="M 988 725 
L 472 -850 
L 125 -850 
L 503 725 
L 988 725 
z
" transform="scale(0.015625)"/>
     <path id="MalgunGothic-2f2" d="M 4603 -563 
L 4603 1259 
L 1241 1259 
L 1241 1678 
L 2913 1678 
L 2913 2803 
L 403 2803 
L 403 3219 
L 4581 3219 
Q 4634 3728 4634 4850 
L 1338 4850 
L 1338 5269 
L 5100 5269 
Q 5100 4225 5031 3219 
L 5997 3219 
L 5997 2803 
L 3378 2803 
L 3378 1678 
L 5069 1678 
L 5069 -563 
L 4603 -563 
z
" transform="scale(0.015625)"/>
     <path id="MalgunGothic-31b" d="M 4884 -563 
L 4884 5466 
L 5350 5466 
L 5350 -563 
L 4884 -563 
z
M 3675 4909 
Q 3653 3656 2956 2611 
Q 2259 1566 959 844 
L 603 1222 
Q 1559 1619 2293 2478 
Q 3028 3338 3175 4494 
L 850 4494 
L 850 4909 
L 3675 4909 
z
" transform="scale(0.015625)"/>
     <path id="MalgunGothic-8f1" d="M 5459 3078 
Q 4725 3191 4092 3536 
Q 3459 3881 3206 4263 
Q 2988 3925 2334 3556 
Q 1681 3188 972 3084 
L 697 3463 
Q 1541 3531 2203 3934 
Q 2866 4338 2963 4800 
L 1025 4800 
L 1025 5222 
L 5375 5222 
L 5375 4800 
L 3438 4800 
Q 3534 4331 4187 3928 
Q 4841 3525 5703 3463 
L 5459 3078 
z
M 3438 2088 
L 3438 603 
L 2963 603 
L 2963 2088 
L 403 2088 
L 403 2503 
L 5997 2503 
L 5997 2088 
L 3438 2088 
z
M 1325 -359 
L 1325 1459 
L 1791 1459 
L 1791 56 
L 5203 56 
L 5203 -359 
L 1325 -359 
z
" transform="scale(0.015625)"/>
    </defs>
    <use xlink:href="#MalgunGothic-15"/>
    <use xlink:href="#MalgunGothic-13" transform="translate(55.078125 0)"/>
    <use xlink:href="#MalgunGothic-14" transform="translate(110.15625 0)"/>
    <use xlink:href="#MalgunGothic-19" transform="translate(165.234375 0)"/>
    <use xlink:href="#MalgunGothic-61" transform="translate(220.3125 0)"/>
    <use xlink:href="#MalgunGothic-15" transform="translate(290.375 0)"/>
    <use xlink:href="#MalgunGothic-13" transform="translate(345.453125 0)"/>
    <use xlink:href="#MalgunGothic-15" transform="translate(400.53125 0)"/>
    <use xlink:href="#MalgunGothic-16" transform="translate(455.609375 0)"/>
    <use xlink:href="#MalgunGothic-3d7" transform="translate(510.6875 0)"/>
    <use xlink:href="#MalgunGothic-3" transform="translate(610.6875 0)"/>
    <use xlink:href="#MalgunGothic-b22" transform="translate(645.84375 0)"/>
    <use xlink:href="#MalgunGothic-2c3" transform="translate(745.84375 0)"/>
    <use xlink:href="#MalgunGothic-3" transform="translate(845.84375 0)"/>
    <use xlink:href="#MalgunGothic-608" transform="translate(881 0)"/>
    <use xlink:href="#MalgunGothic-6e2" transform="translate(981 0)"/>
    <use xlink:href="#MalgunGothic-2a2" transform="translate(1081 0)"/>
    <use xlink:href="#MalgunGothic-739" transform="translate(1181 0)"/>
    <use xlink:href="#MalgunGothic-3" transform="translate(1281 0)"/>
    <use xlink:href="#MalgunGothic-11d" transform="translate(1316.15625 0)"/>
    <use xlink:href="#MalgunGothic-3" transform="translate(1386.21875 0)"/>
    <use xlink:href="#MalgunGothic-2e" transform="translate(1421.375 0)"/>
    <use xlink:href="#MalgunGothic-32" transform="translate(1475.671875 0)"/>
    <use xlink:href="#MalgunGothic-36" transform="translate(1553.015625 0)"/>
    <use xlink:href="#MalgunGothic-2c" transform="translate(1607.3125 0)"/>
    <use xlink:href="#MalgunGothic-36" transform="translate(1634.3125 0)"/>
    <use xlink:href="#MalgunGothic-3" transform="translate(1688.609375 0)"/>
    <use xlink:href="#MalgunGothic-889" transform="translate(1723.765625 0)"/>
    <use xlink:href="#MalgunGothic-2f1" transform="translate(1823.765625 0)"/>
    <use xlink:href="#MalgunGothic-b22" transform="translate(1923.765625 0)"/>
    <use xlink:href="#MalgunGothic-2c3" transform="translate(2023.765625 0)"/>
    <use xlink:href="#MalgunGothic-f" transform="translate(2123.765625 0)"/>
    <use xlink:href="#MalgunGothic-3" transform="translate(2145.640625 0)"/>
    <use xlink:href="#MalgunGothic-8b7" transform="translate(2180.796875 0)"/>
    <use xlink:href="#MalgunGothic-2f2" transform="translate(2280.796875 0)"/>
    <use xlink:href="#MalgunGothic-3" transform="translate(2380.796875 0)"/>
    <use xlink:href="#MalgunGothic-31b" transform="translate(2415.953125 0)"/>
    <use xlink:href="#MalgunGothic-8f1" transform="translate(2515.953125 0)"/>
   </g>
  </g>
 </g>
 <defs>
  <clipPath id="p5b46e334f7">
   <rect x="93.7" y="65.952" width="558" height="367.2"/>
  </clipPath>
 </defs>
</svg>
