<?xml version="1.0" encoding="utf-8" standalone="no"?>
<!DOCTYPE svg PUBLIC "-//W3C//DTD SVG 1.1//EN"
  "http://www.w3.org/Graphics/SVG/1.1/DTD/svg11.dtd">
<svg xmlns:xlink="http://www.w3.org/1999/xlink" width="631pt" height="452.447094pt" viewBox="0 0 631 452.447094" xmlns="http://www.w3.org/2000/svg" version="1.1">
 <metadata>
  <rdf:RDF xmlns:dc="http://purl.org/dc/elements/1.1/" xmlns:cc="http://creativecommons.org/ns#" xmlns:rdf="http://www.w3.org/1999/02/22-rdf-syntax-ns#">
   <cc:Work>
    <dc:type rdf:resource="http://purl.org/dc/dcmitype/StillImage"/>
    <dc:date>2026-07-02T21:28:53.008609</dc:date>
    <dc:format>image/svg+xml</dc:format>
    <dc:creator>
     <cc:Agent>
      <dc:title>Matplotlib v3.11.0, https://matplotlib.org/</dc:title>
     </cc:Agent>
    </dc:creator>
   </cc:Work>
  </rdf:RDF>
 </metadata>
 <defs>
  <style type="text/css">*{stroke-linejoin: round; stroke-linecap: butt}</style>
 </defs>
 <g id="figure_1">
  <g id="patch_1">
   <path d="M 0 452.447094 
L 631 452.447094 
L 631 0 
L 0 0 
z
" style="fill: #fcfcfd"/>
  </g>
  <g id="axes_1">
   <g id="patch_2">
    <path d="M 93.7 408.096 
L 623.8 408.096 
L 623.8 62.496 
L 93.7 62.496 
z
" style="fill: #ffffff"/>
   </g>
   <g id="matplotlib.axis_1">
    <g id="xtick_1">
     <g id="line2d_1">
      <path d="M 93.7 408.096 
L 93.7 62.496 
" clip-path="url(#pde1261b1b3)" style="fill: none; stroke: #e6e8f0; stroke-width: 0.8; stroke-linecap: round"/>
     </g>
     <g id="text_1">
      <!-- 0 -->
      <g style="fill: #262626" transform="translate(90.670703 426.393852) scale(0.11 -0.11)">
       <defs>
        <path id="MalgunGothic-13" d="M 278 2206 
Q 278 3425 675 4050 
Q 1072 4675 1819 4675 
Q 3253 4675 3253 2319 
Q 3253 1156 2854 539 
Q 2456 -78 1716 -78 
Q 1016 -78 647 520 
Q 278 1119 278 2206 
z
M 784 2231 
Q 784 344 1769 344 
Q 2747 344 2747 2259 
Q 2747 4250 1794 4250 
Q 784 4250 784 2231 
z
" transform="scale(0.015625)"/>
       </defs>
       <use xlink:href="#MalgunGothic-13"/>
      </g>
     </g>
    </g>
    <g id="xtick_2">
     <g id="line2d_2">
      <path d="M 191.866667 408.096 
L 191.866667 62.496 
" clip-path="url(#pde1261b1b3)" style="fill: none; stroke: #e6e8f0; stroke-width: 0.8; stroke-linecap: round"/>
     </g>
     <g id="text_2">
      <!-- 20 -->
      <g style="fill: #262626" transform="translate(185.808073 426.393852) scale(0.11 -0.11)">
       <defs>
        <path id="MalgunGothic-15" d="M 2519 3372 
Q 2519 3784 2275 4018 
Q 2031 4253 1628 4253 
Q 1341 4253 1053 4104 
Q 766 3956 534 3697 
L 534 4234 
Q 981 4675 1691 4675 
Q 2281 4675 2642 4334 
Q 3003 3994 3003 3416 
Q 3003 2919 2772 2545 
Q 2541 2172 1984 1775 
Q 1459 1406 1254 1215 
Q 1050 1025 967 854 
Q 884 684 884 450 
L 3116 450 
L 3116 0 
L 356 0 
L 356 225 
Q 356 603 461 870 
Q 566 1138 811 1392 
Q 1056 1647 1597 2022 
Q 2091 2363 2305 2670 
Q 2519 2978 2519 3372 
z
" transform="scale(0.015625)"/>
       </defs>
       <use xlink:href="#MalgunGothic-15"/>
       <use xlink:href="#MalgunGothic-13" transform="translate(55.078125 0)"/>
      </g>
     </g>
    </g>
    <g id="xtick_3">
     <g id="line2d_3">
      <path d="M 290.033333 408.096 
L 290.033333 62.496 
" clip-path="url(#pde1261b1b3)" style="fill: none; stroke: #e6e8f0; stroke-width: 0.8; stroke-linecap: round"/>
     </g>
     <g id="text_3">
      <!-- 40 -->
      <g style="fill: #262626" transform="translate(283.97474 426.393852) scale(0.11 -0.11)">
       <defs>
        <path id="MalgunGothic-17" d="M 2703 4600 
L 2703 1563 
L 3309 1563 
L 3309 1113 
L 2703 1113 
L 2703 0 
L 2213 0 
L 2213 1113 
L 50 1113 
L 50 1534 
Q 728 2297 1295 3109 
Q 1863 3922 2172 4600 
L 2703 4600 
z
M 625 1563 
L 2213 1563 
L 2213 3831 
Q 1613 2788 959 1981 
L 625 1563 
z
" transform="scale(0.015625)"/>
       </defs>
       <use xlink:href="#MalgunGothic-17"/>
       <use xlink:href="#MalgunGothic-13" transform="translate(55.078125 0)"/>
      </g>
     </g>
    </g>
    <g id="xtick_4">
     <g id="line2d_4">
      <path d="M 388.2 408.096 
L 388.2 62.496 
" clip-path="url(#pde1261b1b3)" style="fill: none; stroke: #e6e8f0; stroke-width: 0.8; stroke-linecap: round"/>
     </g>
     <g id="text_4">
      <!-- 60 -->
      <g style="fill: #262626" transform="translate(382.141406 426.393852) scale(0.11 -0.11)">
       <defs>
        <path id="MalgunGothic-19" d="M 2981 4069 
Q 2619 4250 2228 4250 
Q 1591 4250 1228 3689 
Q 866 3128 869 2213 
L 884 2213 
Q 1203 2872 1938 2872 
Q 2547 2872 2903 2478 
Q 3259 2084 3259 1450 
Q 3259 797 2857 359 
Q 2456 -78 1825 -78 
Q 1116 -78 736 478 
Q 356 1034 356 2019 
Q 356 3181 847 3928 
Q 1338 4675 2222 4675 
Q 2700 4675 2981 4544 
L 2981 4069 
z
M 906 1506 
Q 906 1022 1165 683 
Q 1425 344 1844 344 
Q 2247 344 2498 645 
Q 2750 947 2750 1388 
Q 2750 1888 2509 2167 
Q 2269 2447 1838 2447 
Q 1444 2447 1175 2173 
Q 906 1900 906 1506 
z
" transform="scale(0.015625)"/>
       </defs>
       <use xlink:href="#MalgunGothic-19"/>
       <use xlink:href="#MalgunGothic-13" transform="translate(55.078125 0)"/>
      </g>
     </g>
    </g>
    <g id="xtick_5">
     <g id="line2d_5">
      <path d="M 486.366667 408.096 
L 486.366667 62.496 
" clip-path="url(#pde1261b1b3)" style="fill: none; stroke: #e6e8f0; stroke-width: 0.8; stroke-linecap: round"/>
     </g>
     <g id="text_5">
      <!-- 80 -->
      <g style="fill: #262626" transform="translate(480.308073 426.393852) scale(0.11 -0.11)">
       <defs>
        <path id="MalgunGothic-1b" d="M 303 1281 
Q 303 1669 539 2011 
Q 775 2353 1153 2494 
Q 856 2647 675 2915 
Q 494 3184 494 3500 
Q 494 3828 659 4098 
Q 825 4369 1122 4522 
Q 1419 4675 1778 4675 
Q 2334 4675 2700 4342 
Q 3066 4009 3066 3500 
Q 3066 3181 2881 2914 
Q 2697 2647 2413 2494 
Q 2788 2350 3022 2009 
Q 3256 1669 3256 1281 
Q 3256 672 2843 297 
Q 2431 -78 1778 -78 
Q 1131 -78 717 301 
Q 303 681 303 1281 
z
M 809 1328 
Q 809 878 1081 611 
Q 1353 344 1781 344 
Q 2206 344 2482 619 
Q 2759 894 2759 1328 
Q 2759 1731 2482 2011 
Q 2206 2291 1781 2291 
Q 1372 2291 1090 2020 
Q 809 1750 809 1328 
z
M 1003 3459 
Q 1003 3125 1234 2900 
Q 1466 2675 1781 2675 
Q 2097 2675 2330 2900 
Q 2563 3125 2563 3459 
Q 2563 3803 2341 4026 
Q 2119 4250 1781 4250 
Q 1450 4250 1226 4029 
Q 1003 3809 1003 3459 
z
" transform="scale(0.015625)"/>
       </defs>
       <use xlink:href="#MalgunGothic-1b"/>
       <use xlink:href="#MalgunGothic-13" transform="translate(55.078125 0)"/>
      </g>
     </g>
    </g>
    <g id="xtick_6">
     <g id="line2d_6">
      <path d="M 584.533333 408.096 
L 584.533333 62.496 
" clip-path="url(#pde1261b1b3)" style="fill: none; stroke: #e6e8f0; stroke-width: 0.8; stroke-linecap: round"/>
     </g>
     <g id="text_6">
      <!-- 100 -->
      <g style="fill: #262626" transform="translate(575.445443 426.393852) scale(0.11 -0.11)">
       <defs>
        <path id="MalgunGothic-14" d="M 2231 0 
L 1734 0 
L 1734 3972 
Q 1591 3828 1266 3661 
Q 941 3494 672 3428 
L 672 3959 
Q 1016 4056 1409 4275 
Q 1803 4494 2031 4700 
L 2231 4700 
L 2231 0 
z
" transform="scale(0.015625)"/>
       </defs>
       <use xlink:href="#MalgunGothic-14"/>
       <use xlink:href="#MalgunGothic-13" transform="translate(55.078125 0)"/>
       <use xlink:href="#MalgunGothic-13" transform="translate(110.15625 0)"/>
      </g>
     </g>
    </g>
    <g id="text_7">
     <!-- NPS (숏리스트 내부 상대점수, 0~100) -->
     <g style="fill: #1f2430" transform="translate(256.647812 442.84475) scale(0.12 -0.12)">
      <defs>
       <path id="MalgunGothic-31" d="M 4288 0 
L 3653 0 
L 1253 3713 
Q 1178 3828 1109 4000 
L 1094 4000 
Q 1116 3822 1116 3372 
L 1116 0 
L 609 0 
L 609 4600 
L 1278 4600 
L 3613 938 
Q 3775 684 3797 634 
L 3809 634 
Q 3775 863 3775 1316 
L 3775 4600 
L 4288 4600 
L 4288 0 
z
" transform="scale(0.015625)"/>
       <path id="MalgunGothic-33" d="M 1113 1747 
L 1113 0 
L 609 0 
L 609 4600 
L 1850 4600 
Q 2575 4600 2979 4240 
Q 3384 3881 3384 3231 
Q 3384 2559 2909 2140 
Q 2434 1722 1728 1747 
L 1113 1747 
z
M 1113 4131 
L 1113 2219 
L 1691 2219 
Q 2256 2219 2554 2475 
Q 2853 2731 2853 3206 
Q 2853 4131 1759 4131 
L 1113 4131 
z
" transform="scale(0.015625)"/>
       <path id="MalgunGothic-36" d="M 394 797 
Q 606 613 964 500 
Q 1322 388 1625 388 
Q 2628 388 2628 1116 
Q 2628 1325 2523 1484 
Q 2419 1644 2250 1756 
Q 2081 1869 1547 2144 
Q 903 2475 651 2754 
Q 400 3034 400 3456 
Q 400 4019 858 4347 
Q 1316 4675 1988 4675 
Q 2669 4675 2963 4513 
L 2963 3928 
Q 2563 4206 1922 4206 
Q 1484 4206 1207 4018 
Q 931 3831 931 3500 
Q 931 3200 1126 3011 
Q 1322 2822 1938 2522 
Q 2656 2163 2906 1844 
Q 3156 1525 3156 1153 
Q 3156 556 2725 239 
Q 2294 -78 1531 -78 
Q 1291 -78 927 -1 
Q 563 75 394 188 
L 394 797 
z
" transform="scale(0.015625)"/>
       <path id="MalgunGothic-3" transform="scale(0.015625)"/>
       <path id="MalgunGothic-b" d="M 1438 -1044 
Q 447 88 447 1753 
Q 447 3431 1438 4600 
L 1888 4600 
Q 878 3372 878 1759 
Q 878 153 1881 -1044 
L 1438 -1044 
z
" transform="scale(0.015625)"/>
       <path id="MalgunGothic-737" d="M 5459 3272 
Q 4697 3391 4072 3758 
Q 3447 4125 3206 4500 
Q 2975 4141 2336 3764 
Q 1697 3388 972 3278 
L 697 3653 
Q 1634 3734 2301 4201 
Q 2969 4669 2969 5119 
L 2969 5331 
L 3431 5331 
L 3431 5119 
Q 3431 4669 4082 4198 
Q 4734 3728 5703 3647 
L 5459 3272 
z
M 2034 3297 
L 2503 3297 
L 2503 2419 
L 3903 2419 
L 3903 3297 
L 4372 3297 
L 4372 2419 
L 5997 2419 
L 5997 2003 
L 403 2003 
L 403 2419 
L 2034 2419 
L 2034 3297 
z
M 5313 -459 
Q 4628 -309 4042 37 
Q 3456 384 3200 781 
Q 2966 409 2355 45 
Q 1744 -319 1113 -459 
L 819 -56 
Q 1703 63 2328 511 
Q 2953 959 2963 1484 
L 2963 1638 
L 3431 1638 
L 3431 1491 
Q 3431 981 4054 526 
Q 4678 72 5575 -56 
L 5313 -459 
z
" transform="scale(0.015625)"/>
       <path id="MalgunGothic-579" d="M 4884 -563 
L 4884 5466 
L 5350 5466 
L 5350 -563 
L 4884 -563 
z
M 856 738 
L 856 3128 
L 3150 3128 
L 3150 4519 
L 856 4519 
L 856 4934 
L 3616 4934 
L 3616 2725 
L 1325 2725 
L 1325 1153 
Q 3597 1153 4197 1281 
L 4250 878 
Q 3500 738 856 738 
z
" transform="scale(0.015625)"/>
       <path id="MalgunGothic-75b" d="M 3194 3897 
Q 2969 3416 2328 2930 
Q 1688 2444 959 2247 
L 641 2619 
Q 1703 2841 2329 3472 
Q 2956 4103 2956 4659 
L 2956 4978 
L 3438 4978 
L 3438 4659 
Q 3438 4094 4073 3476 
Q 4709 2859 5759 2625 
L 5428 2253 
Q 4694 2481 4058 2956 
Q 3422 3431 3194 3897 
z
M 5997 447 
L 403 447 
L 403 863 
L 5997 863 
L 5997 447 
z
" transform="scale(0.015625)"/>
       <path id="MalgunGothic-a9d" d="M 5131 4469 
L 1766 4469 
L 1766 3597 
L 4959 3597 
L 4959 3181 
L 1766 3181 
L 1766 2356 
L 5228 2356 
L 5228 1941 
L 1306 1941 
L 1306 4878 
L 5131 4878 
L 5131 4469 
z
M 403 384 
L 403 800 
L 5997 800 
L 5997 384 
L 403 384 
z
" transform="scale(0.015625)"/>
       <path id="MalgunGothic-3b0" d="M 5050 -563 
L 5050 2431 
L 4256 2431 
L 4256 -378 
L 3788 -378 
L 3788 5344 
L 4256 5344 
L 4256 2847 
L 5050 2847 
L 5050 5466 
L 5516 5466 
L 5516 -563 
L 5050 -563 
z
M 3444 1259 
Q 2953 1159 878 1159 
L 878 4972 
L 1344 4972 
L 1344 1575 
Q 2725 1575 3397 1663 
L 3444 1259 
z
" transform="scale(0.015625)"/>
       <path id="MalgunGothic-655" d="M 1306 2822 
L 1306 5288 
L 1766 5288 
L 1766 4428 
L 4634 4428 
L 4634 5288 
L 5094 5288 
L 5094 2822 
L 1306 2822 
z
M 4634 4019 
L 1766 4019 
L 1766 3231 
L 4634 3231 
L 4634 4019 
z
M 3431 1619 
L 3431 -563 
L 2963 -563 
L 2963 1619 
L 403 1619 
L 403 2041 
L 5997 2041 
L 5997 1619 
L 3431 1619 
z
" transform="scale(0.015625)"/>
       <path id="MalgunGothic-6d8" d="M 5125 3391 
L 5125 1991 
L 4659 1991 
L 4659 5466 
L 5125 5466 
L 5125 3816 
L 6034 3816 
L 6034 3391 
L 5125 3391 
z
M 3603 2316 
Q 3206 2528 2778 2934 
Q 2350 3341 2188 3681 
Q 2022 3291 1609 2852 
Q 1197 2413 750 2163 
L 409 2484 
Q 1072 2806 1512 3397 
Q 1953 3988 1953 4628 
L 1953 5259 
L 2400 5259 
L 2400 4628 
Q 2400 4025 2845 3472 
Q 3291 2919 3909 2656 
L 3603 2316 
z
M 3263 -513 
Q 2322 -513 1811 -186 
Q 1300 141 1300 659 
Q 1300 1175 1812 1500 
Q 2325 1825 3263 1825 
Q 4203 1825 4715 1501 
Q 5228 1178 5228 659 
Q 5228 138 4717 -187 
Q 4206 -513 3263 -513 
z
M 3263 1428 
Q 2563 1428 2180 1215 
Q 1797 1003 1797 659 
Q 1797 309 2181 96 
Q 2566 -116 3263 -116 
Q 3969 -116 4353 98 
Q 4738 313 4738 659 
Q 4738 1000 4353 1214 
Q 3969 1428 3263 1428 
z
" transform="scale(0.015625)"/>
       <path id="MalgunGothic-43e" d="M 5069 -563 
L 5069 2572 
L 4294 2572 
L 4294 -378 
L 3834 -378 
L 3834 5344 
L 4294 5344 
L 4294 2988 
L 5069 2988 
L 5069 5466 
L 5538 5466 
L 5538 -563 
L 5069 -563 
z
M 3391 1153 
Q 2516 1063 825 1063 
L 825 4934 
L 3138 4934 
L 3138 4519 
L 1288 4519 
L 1288 1478 
L 1844 1478 
Q 2791 1478 3359 1550 
L 3391 1153 
z
" transform="scale(0.015625)"/>
       <path id="MalgunGothic-8ba" d="M 4884 2113 
L 4884 3675 
L 3444 3675 
L 3444 4097 
L 4884 4097 
L 4884 5466 
L 5350 5466 
L 5350 2113 
L 4884 2113 
z
M 3653 2328 
Q 3244 2550 2831 2950 
Q 2419 3350 2253 3700 
Q 2075 3303 1659 2858 
Q 1244 2413 819 2175 
L 488 2497 
Q 1134 2806 1571 3393 
Q 2009 3981 2009 4628 
L 2009 4781 
L 684 4781 
L 684 5197 
L 3788 5197 
L 3788 4781 
L 2463 4781 
L 2463 4628 
Q 2463 4025 2916 3472 
Q 3369 2919 3969 2669 
L 3653 2328 
z
M 1625 -397 
L 1625 1766 
L 5350 1766 
L 5350 -397 
L 1625 -397 
z
M 4891 1356 
L 2088 1356 
L 2088 13 
L 4891 13 
L 4891 1356 
z
" transform="scale(0.015625)"/>
       <path id="MalgunGothic-739" d="M 5491 2994 
Q 4750 3097 4078 3498 
Q 3406 3900 3200 4275 
Q 2975 3891 2309 3491 
Q 1644 3091 922 2956 
L 634 3347 
Q 1559 3450 2261 3942 
Q 2963 4434 2963 5013 
L 2963 5275 
L 3431 5275 
L 3431 5013 
Q 3431 4431 4118 3948 
Q 4806 3466 5766 3378 
L 5491 2994 
z
M 3431 1838 
L 3431 -563 
L 2963 -563 
L 2963 1838 
L 403 1838 
L 403 2253 
L 5997 2253 
L 5997 1838 
L 3431 1838 
z
" transform="scale(0.015625)"/>
       <path id="MalgunGothic-f" d="M 988 725 
L 472 -850 
L 125 -850 
L 503 725 
L 988 725 
z
" transform="scale(0.015625)"/>
       <path id="MalgunGothic-61" d="M 3819 2400 
Q 3794 1925 3559 1670 
Q 3325 1416 2925 1416 
Q 2572 1416 2075 1772 
Q 1766 1988 1563 1988 
Q 1106 1988 1094 1419 
L 675 1419 
Q 691 1888 933 2145 
Q 1175 2403 1566 2403 
Q 1903 2403 2319 2116 
Q 2747 1825 2953 1825 
Q 3153 1825 3273 1983 
Q 3394 2141 3400 2400 
L 3819 2400 
z
" transform="scale(0.015625)"/>
       <path id="MalgunGothic-c" d="M 81 -1044 
Q 1081 150 1081 1759 
Q 1081 3378 72 4600 
L 525 4600 
Q 1522 3431 1522 1753 
Q 1522 88 525 -1044 
L 81 -1044 
z
" transform="scale(0.015625)"/>
      </defs>
      <use xlink:href="#MalgunGothic-31"/>
      <use xlink:href="#MalgunGothic-33" transform="translate(76.515625 0)"/>
      <use xlink:href="#MalgunGothic-36" transform="translate(133.59375 0)"/>
      <use xlink:href="#MalgunGothic-3" transform="translate(187.890625 0)"/>
      <use xlink:href="#MalgunGothic-b" transform="translate(223.046875 0)"/>
      <use xlink:href="#MalgunGothic-737" transform="translate(253.515625 0)"/>
      <use xlink:href="#MalgunGothic-579" transform="translate(353.515625 0)"/>
      <use xlink:href="#MalgunGothic-75b" transform="translate(453.515625 0)"/>
      <use xlink:href="#MalgunGothic-a9d" transform="translate(553.515625 0)"/>
      <use xlink:href="#MalgunGothic-3" transform="translate(653.515625 0)"/>
      <use xlink:href="#MalgunGothic-3b0" transform="translate(688.671875 0)"/>
      <use xlink:href="#MalgunGothic-655" transform="translate(788.671875 0)"/>
      <use xlink:href="#MalgunGothic-3" transform="translate(888.671875 0)"/>
      <use xlink:href="#MalgunGothic-6d8" transform="translate(923.828125 0)"/>
      <use xlink:href="#MalgunGothic-43e" transform="translate(1023.828125 0)"/>
      <use xlink:href="#MalgunGothic-8ba" transform="translate(1123.828125 0)"/>
      <use xlink:href="#MalgunGothic-739" transform="translate(1223.828125 0)"/>
      <use xlink:href="#MalgunGothic-f" transform="translate(1323.828125 0)"/>
      <use xlink:href="#MalgunGothic-3" transform="translate(1345.703125 0)"/>
      <use xlink:href="#MalgunGothic-13" transform="translate(1380.859375 0)"/>
      <use xlink:href="#MalgunGothic-61" transform="translate(1435.9375 0)"/>
      <use xlink:href="#MalgunGothic-14" transform="translate(1506 0)"/>
      <use xlink:href="#MalgunGothic-13" transform="translate(1561.078125 0)"/>
      <use xlink:href="#MalgunGothic-13" transform="translate(1616.15625 0)"/>
      <use xlink:href="#MalgunGothic-c" transform="translate(1671.234375 0)"/>
     </g>
    </g>
   </g>
   <g id="matplotlib.axis_2">
    <g id="ytick_1">
     <g id="text_8">
      <!-- 유행성이하선염 -->
      <g style="fill: #262626" transform="translate(7.2 380.972365) scale(0.11 -0.11)">
       <defs>
        <path id="MalgunGothic-86a" d="M 3200 2784 
Q 2278 2784 1768 3131 
Q 1259 3478 1259 4078 
Q 1259 4669 1775 5025 
Q 2291 5381 3200 5381 
Q 4128 5381 4640 5025 
Q 5153 4669 5153 4078 
Q 5153 3484 4640 3134 
Q 4128 2784 3200 2784 
z
M 3200 4978 
Q 2513 4978 2130 4736 
Q 1747 4494 1747 4078 
Q 1747 3669 2130 3425 
Q 2513 3181 3200 3181 
Q 3888 3181 4270 3425 
Q 4653 3669 4653 4078 
Q 4653 4494 4270 4736 
Q 3888 4978 3200 4978 
z
M 1913 -556 
L 1913 1672 
L 403 1672 
L 403 2094 
L 5997 2094 
L 5997 1672 
L 4488 1672 
L 4488 -556 
L 4019 -556 
L 4019 1672 
L 2381 1672 
L 2381 -556 
L 1913 -556 
z
" transform="scale(0.015625)"/>
        <path id="MalgunGothic-b2d" d="M 5075 1772 
L 5075 3231 
L 4372 3231 
L 4372 1947 
L 3909 1947 
L 3909 5344 
L 4372 5344 
L 4372 3641 
L 5075 3641 
L 5075 5466 
L 5538 5466 
L 5538 1772 
L 5075 1772 
z
M 459 4275 
L 459 4684 
L 1784 4684 
L 1784 5416 
L 2247 5416 
L 2247 4684 
L 3559 4684 
L 3559 4275 
L 459 4275 
z
M 2022 1997 
Q 1431 1997 1070 2284 
Q 709 2572 709 3003 
Q 709 3438 1071 3722 
Q 1434 4006 2022 4006 
Q 2609 4006 2971 3722 
Q 3334 3438 3334 3003 
Q 3334 2569 2976 2283 
Q 2619 1997 2022 1997 
z
M 2022 3622 
Q 1656 3622 1404 3448 
Q 1153 3275 1153 3003 
Q 1153 2738 1406 2563 
Q 1659 2388 2022 2388 
Q 2391 2388 2645 2563 
Q 2900 2738 2900 3003 
Q 2900 3275 2644 3448 
Q 2388 3622 2022 3622 
z
M 3547 -513 
Q 2556 -513 2036 -227 
Q 1516 59 1516 569 
Q 1516 1084 2037 1367 
Q 2559 1650 3547 1650 
Q 4534 1650 5054 1364 
Q 5575 1078 5575 569 
Q 5575 63 5056 -225 
Q 4538 -513 3547 -513 
z
M 3547 1253 
Q 2016 1253 2016 569 
Q 2016 -116 3547 -116 
Q 5081 -116 5081 569 
Q 5081 1253 3547 1253 
z
" transform="scale(0.015625)"/>
        <path id="MalgunGothic-6fd" d="M 4947 1984 
L 4947 3781 
L 3541 3781 
L 3541 4200 
L 4947 4200 
L 4947 5466 
L 5416 5466 
L 5416 1984 
L 4947 1984 
z
M 3653 2328 
Q 3244 2550 2831 2950 
Q 2419 3350 2253 3700 
Q 2075 3303 1659 2858 
Q 1244 2413 819 2175 
L 488 2497 
Q 1134 2806 1571 3393 
Q 2009 3981 2009 4628 
L 2009 5269 
L 2463 5269 
L 2463 4628 
Q 2463 4025 2916 3472 
Q 3369 2919 3969 2669 
L 3653 2328 
z
M 3566 -475 
Q 2622 -475 2108 -148 
Q 1594 178 1594 697 
Q 1594 1216 2106 1539 
Q 2619 1863 3566 1863 
Q 4513 1863 5025 1539 
Q 5538 1216 5538 697 
Q 5538 178 5023 -148 
Q 4509 -475 3566 -475 
z
M 3566 1466 
Q 2850 1466 2472 1248 
Q 2094 1031 2094 697 
Q 2094 359 2473 143 
Q 2853 -72 3566 -72 
Q 4275 -72 4656 142 
Q 5038 356 5038 697 
Q 5038 1034 4659 1250 
Q 4281 1466 3566 1466 
z
" transform="scale(0.015625)"/>
        <path id="MalgunGothic-887" d="M 4947 -563 
L 4947 5466 
L 5416 5466 
L 5416 -563 
L 4947 -563 
z
M 2284 959 
Q 1597 959 1173 1514 
Q 750 2069 750 3016 
Q 750 3975 1169 4522 
Q 1588 5069 2284 5069 
Q 2978 5069 3403 4522 
Q 3828 3975 3828 3016 
Q 3828 2063 3401 1511 
Q 2975 959 2284 959 
z
M 2284 4653 
Q 1803 4653 1503 4204 
Q 1203 3756 1203 3016 
Q 1203 2278 1506 1826 
Q 1809 1375 2284 1375 
Q 2756 1375 3061 1828 
Q 3366 2281 3366 3016 
Q 3366 3759 3067 4206 
Q 2769 4653 2284 4653 
z
" transform="scale(0.015625)"/>
        <path id="MalgunGothic-b1c" d="M 5094 2278 
L 5094 -563 
L 4628 -563 
L 4628 5466 
L 5094 5466 
L 5094 2694 
L 6113 2694 
L 6113 2278 
L 5094 2278 
z
M 469 4084 
L 469 4506 
L 2022 4506 
L 2022 5466 
L 2491 5466 
L 2491 4506 
L 4050 4506 
L 4050 4084 
L 469 4084 
z
M 2253 934 
Q 1588 934 1166 1318 
Q 744 1703 744 2272 
Q 744 2850 1166 3233 
Q 1588 3616 2259 3616 
Q 2928 3616 3351 3231 
Q 3775 2847 3775 2266 
Q 3775 1694 3351 1314 
Q 2928 934 2253 934 
z
M 2259 3219 
Q 1797 3219 1500 2941 
Q 1203 2663 1203 2272 
Q 1203 1884 1501 1607 
Q 1800 1331 2259 1331 
Q 2719 1331 3017 1607 
Q 3316 1884 3316 2272 
Q 3316 2663 3019 2941 
Q 2722 3219 2259 3219 
z
" transform="scale(0.015625)"/>
        <path id="MalgunGothic-6f4" d="M 4878 1063 
L 4878 3653 
L 3469 3653 
L 3469 4072 
L 4878 4072 
L 4878 5466 
L 5344 5466 
L 5344 1063 
L 4878 1063 
z
M 3675 2069 
Q 3228 2344 2829 2776 
Q 2431 3209 2266 3566 
Q 2091 3150 1662 2648 
Q 1234 2147 819 1913 
L 481 2234 
Q 1125 2559 1573 3198 
Q 2022 3838 2022 4494 
L 2022 5269 
L 2478 5269 
L 2478 4494 
Q 2478 3894 2943 3286 
Q 3409 2678 3988 2406 
L 3675 2069 
z
M 1631 -366 
L 1631 1550 
L 2100 1550 
L 2100 44 
L 5503 44 
L 5503 -366 
L 1631 -366 
z
" transform="scale(0.015625)"/>
        <path id="MalgunGothic-80d" d="M 3641 2791 
Q 3194 2241 2413 2241 
Q 1734 2241 1292 2670 
Q 850 3100 850 3781 
Q 850 4466 1295 4898 
Q 1741 5331 2413 5331 
Q 3247 5331 3700 4703 
L 4947 4703 
L 4947 5466 
L 5416 5466 
L 5416 2047 
L 4947 2047 
L 4947 2791 
L 3641 2791 
z
M 2413 4928 
Q 1925 4928 1622 4612 
Q 1319 4297 1319 3781 
Q 1319 3269 1620 2959 
Q 1922 2650 2413 2650 
Q 2897 2650 3205 2956 
Q 3513 3263 3513 3781 
Q 3513 4303 3205 4615 
Q 2897 4928 2413 4928 
z
M 3872 3200 
L 4947 3200 
L 4947 4288 
L 3897 4288 
Q 3975 4063 3975 3781 
Q 3975 3478 3872 3200 
z
M 1703 -397 
L 1703 1716 
L 5416 1716 
L 5416 -397 
L 1703 -397 
z
M 4953 1306 
L 2163 1306 
L 2163 13 
L 4953 13 
L 4953 1306 
z
" transform="scale(0.015625)"/>
       </defs>
       <use xlink:href="#MalgunGothic-86a"/>
       <use xlink:href="#MalgunGothic-b2d" transform="translate(100 0)"/>
       <use xlink:href="#MalgunGothic-6fd" transform="translate(200 0)"/>
       <use xlink:href="#MalgunGothic-887" transform="translate(300 0)"/>
       <use xlink:href="#MalgunGothic-b1c" transform="translate(400 0)"/>
       <use xlink:href="#MalgunGothic-6f4" transform="translate(500 0)"/>
       <use xlink:href="#MalgunGothic-80d" transform="translate(600 0)"/>
      </g>
     </g>
    </g>
    <g id="ytick_2">
     <g id="text_9">
      <!-- 수두 -->
      <g style="fill: #262626" transform="translate(62.2 340.528504) scale(0.11 -0.11)">
       <defs>
        <path id="MalgunGothic-47f" d="M 1306 2969 
L 1306 5247 
L 5094 5247 
L 5094 4831 
L 1772 4831 
L 1772 3384 
L 5191 3384 
L 5191 2969 
L 1306 2969 
z
M 3438 1716 
L 3438 -556 
L 2963 -556 
L 2963 1716 
L 403 1716 
L 403 2131 
L 5997 2131 
L 5997 1716 
L 3438 1716 
z
" transform="scale(0.015625)"/>
       </defs>
       <use xlink:href="#MalgunGothic-739"/>
       <use xlink:href="#MalgunGothic-47f" transform="translate(100 0)"/>
      </g>
     </g>
    </g>
    <g id="ytick_3">
     <g id="text_10">
      <!-- A형간염 -->
      <g style="fill: #262626" transform="translate(43.958906 300.439565) scale(0.11 -0.11)">
       <defs>
        <path id="MalgunGothic-24" d="M 4134 0 
L 3575 0 
L 3075 1306 
L 1103 1306 
L 638 0 
L 75 0 
L 1844 4600 
L 2356 4600 
L 4134 0 
z
M 2903 1769 
L 2169 3756 
Q 2128 3866 2100 4059 
L 2084 4059 
Q 2050 3844 2009 3756 
L 1281 1769 
L 2903 1769 
z
" transform="scale(0.015625)"/>
        <path id="MalgunGothic-b49" d="M 494 4306 
L 494 4716 
L 2028 4716 
L 2028 5497 
L 2491 5497 
L 2491 4716 
L 4025 4716 
L 4025 4306 
L 494 4306 
z
M 3950 2463 
L 3950 2875 
L 4947 2875 
L 4947 3541 
L 3950 3541 
L 3950 3944 
L 4947 3944 
L 4947 5466 
L 5416 5466 
L 5416 1778 
L 4947 1778 
L 4947 2463 
L 3950 2463 
z
M 2253 1959 
Q 1584 1959 1192 2257 
Q 800 2556 800 3009 
Q 800 3459 1189 3754 
Q 1578 4050 2259 4050 
Q 2934 4050 3323 3754 
Q 3713 3459 3713 3009 
Q 3713 2556 3320 2257 
Q 2928 1959 2253 1959 
z
M 2259 3653 
Q 1797 3653 1533 3475 
Q 1269 3297 1269 3009 
Q 1269 2722 1534 2539 
Q 1800 2356 2259 2356 
Q 2719 2356 2981 2539 
Q 3244 2722 3244 3009 
Q 3244 3294 2983 3473 
Q 2722 3653 2259 3653 
z
M 3481 -519 
Q 2519 -519 2001 -226 
Q 1484 66 1484 563 
Q 1484 1059 2000 1348 
Q 2516 1638 3481 1638 
Q 4456 1638 4967 1347 
Q 5478 1056 5478 563 
Q 5478 66 4964 -226 
Q 4450 -519 3481 -519 
z
M 3481 1241 
Q 2753 1241 2368 1062 
Q 1984 884 1984 563 
Q 1984 241 2364 59 
Q 2744 -122 3481 -122 
Q 4222 -122 4603 61 
Q 4984 244 4984 563 
Q 4984 884 4598 1062 
Q 4213 1241 3481 1241 
z
" transform="scale(0.015625)"/>
        <path id="MalgunGothic-27e" d="M 5125 3122 
L 5125 1063 
L 4659 1063 
L 4659 5466 
L 5125 5466 
L 5125 3541 
L 6034 3541 
L 6034 3122 
L 5125 3122 
z
M 3513 5100 
Q 3403 3872 2556 3011 
Q 1709 2150 794 1800 
L 469 2163 
Q 1344 2450 2087 3172 
Q 2831 3894 2963 4678 
L 831 4678 
L 831 5100 
L 3513 5100 
z
M 1459 -325 
L 1459 1509 
L 1925 1509 
L 1925 97 
L 5294 97 
L 5294 -325 
L 1459 -325 
z
" transform="scale(0.015625)"/>
       </defs>
       <use xlink:href="#MalgunGothic-24"/>
       <use xlink:href="#MalgunGothic-b49" transform="translate(65.828125 0)"/>
       <use xlink:href="#MalgunGothic-27e" transform="translate(165.828125 0)"/>
       <use xlink:href="#MalgunGothic-80d" transform="translate(265.828125 0)"/>
      </g>
     </g>
    </g>
    <g id="ytick_4">
     <g id="text_11">
      <!-- 백일해 -->
      <g style="fill: #262626" transform="translate(51.2 260.133204) scale(0.11 -0.11)">
       <defs>
        <path id="MalgunGothic-612" d="M 5056 2028 
L 5056 3438 
L 4359 3438 
L 4359 2028 
L 3897 2028 
L 3897 5344 
L 4359 5344 
L 4359 3859 
L 5056 3859 
L 5056 5466 
L 5522 5466 
L 5522 2028 
L 5056 2028 
z
M 763 2363 
L 763 5209 
L 1222 5209 
L 1222 4103 
L 2772 4103 
L 2772 5209 
L 3231 5209 
L 3231 2363 
L 763 2363 
z
M 2772 3688 
L 1222 3688 
L 1222 2778 
L 2772 2778 
L 2772 3688 
z
M 5056 -563 
L 5056 1281 
L 1581 1281 
L 1581 1697 
L 5522 1697 
L 5522 -563 
L 5056 -563 
z
" transform="scale(0.015625)"/>
        <path id="MalgunGothic-88a" d="M 4947 2363 
L 4947 5466 
L 5422 5466 
L 5422 2363 
L 4947 2363 
z
M 2419 2578 
Q 1738 2578 1314 2970 
Q 891 3363 891 3969 
Q 891 4572 1314 4961 
Q 1738 5350 2419 5350 
Q 3097 5350 3523 4959 
Q 3950 4569 3950 3969 
Q 3950 3366 3522 2972 
Q 3094 2578 2419 2578 
z
M 2419 4947 
Q 1931 4947 1643 4680 
Q 1356 4413 1356 3969 
Q 1356 3522 1643 3248 
Q 1931 2975 2419 2975 
Q 2906 2975 3193 3248 
Q 3481 3522 3481 3969 
Q 3481 4413 3193 4680 
Q 2906 4947 2419 4947 
z
M 1703 -422 
L 1703 1038 
L 4959 1038 
L 4959 1613 
L 1703 1613 
L 1703 2028 
L 5422 2028 
L 5422 634 
L 2163 634 
L 2163 -6 
L 5588 -6 
L 5588 -422 
L 1703 -422 
z
" transform="scale(0.015625)"/>
        <path id="MalgunGothic-b25" d="M 5119 -563 
L 5119 2272 
L 4403 2272 
L 4403 -372 
L 3944 -372 
L 3944 5350 
L 4403 5350 
L 4403 2688 
L 5119 2688 
L 5119 5466 
L 5588 5466 
L 5588 -563 
L 5119 -563 
z
M 416 3969 
L 416 4384 
L 1753 4384 
L 1753 5319 
L 2222 5319 
L 2222 4384 
L 3559 4384 
L 3559 3969 
L 416 3969 
z
M 2003 897 
Q 1434 897 1046 1270 
Q 659 1644 659 2222 
Q 659 2794 1045 3170 
Q 1431 3547 2003 3547 
Q 2572 3547 2956 3173 
Q 3341 2800 3341 2222 
Q 3341 1638 2955 1267 
Q 2569 897 2003 897 
z
M 2003 3138 
Q 1603 3138 1354 2878 
Q 1106 2619 1106 2222 
Q 1106 1819 1356 1562 
Q 1606 1306 2003 1306 
Q 2394 1306 2647 1561 
Q 2900 1816 2900 2222 
Q 2900 2622 2648 2880 
Q 2397 3138 2003 3138 
z
" transform="scale(0.015625)"/>
       </defs>
       <use xlink:href="#MalgunGothic-612"/>
       <use xlink:href="#MalgunGothic-88a" transform="translate(100 0)"/>
       <use xlink:href="#MalgunGothic-b25" transform="translate(200 0)"/>
      </g>
     </g>
    </g>
    <g id="ytick_5">
     <g id="text_12">
      <!-- 일본뇌염 -->
      <g style="fill: #262626" transform="translate(40.2 219.853484) scale(0.11 -0.11)">
       <defs>
        <path id="MalgunGothic-642" d="M 403 1759 
L 403 2181 
L 2963 2181 
L 2963 2956 
L 1356 2956 
L 1356 5288 
L 1819 5288 
L 1819 4519 
L 4581 4519 
L 4581 5288 
L 5044 5288 
L 5044 2956 
L 3438 2956 
L 3438 2181 
L 5997 2181 
L 5997 1759 
L 403 1759 
z
M 4581 4103 
L 1819 4103 
L 1819 3366 
L 4581 3366 
L 4581 4103 
z
M 1319 -359 
L 1319 1375 
L 1784 1375 
L 1784 56 
L 5203 56 
L 5203 -359 
L 1319 -359 
z
" transform="scale(0.015625)"/>
        <path id="MalgunGothic-3ef" d="M 4984 -563 
L 4984 5466 
L 5453 5466 
L 5453 -563 
L 4984 -563 
z
M 1075 4934 
L 1544 4934 
L 1544 3066 
L 4159 3066 
L 4159 2650 
L 2834 2650 
L 2834 1166 
Q 4181 1197 4603 1228 
L 4628 825 
Q 2847 722 475 722 
L 422 1134 
Q 1459 1134 2369 1153 
L 2369 2650 
L 1075 2650 
L 1075 4934 
z
" transform="scale(0.015625)"/>
       </defs>
       <use xlink:href="#MalgunGothic-88a"/>
       <use xlink:href="#MalgunGothic-642" transform="translate(100 0)"/>
       <use xlink:href="#MalgunGothic-3ef" transform="translate(200 0)"/>
       <use xlink:href="#MalgunGothic-80d" transform="translate(300 0)"/>
      </g>
     </g>
    </g>
    <g id="ytick_6">
     <g id="text_13">
      <!-- 신증후군출혈열 -->
      <g style="fill: #262626" transform="translate(7.2 179.645951) scale(0.11 -0.11)">
       <defs>
        <path id="MalgunGothic-766" d="M 4878 1178 
L 4878 5466 
L 5344 5466 
L 5344 1178 
L 4878 1178 
z
M 3675 2069 
Q 3228 2344 2829 2776 
Q 2431 3209 2266 3566 
Q 2091 3150 1662 2648 
Q 1234 2147 819 1913 
L 481 2234 
Q 1125 2559 1573 3198 
Q 2022 3838 2022 4494 
L 2022 5269 
L 2478 5269 
L 2478 4494 
Q 2478 3894 2943 3286 
Q 3409 2678 3988 2406 
L 3675 2069 
z
M 1631 -366 
L 1631 1550 
L 2100 1550 
L 2100 44 
L 5503 44 
L 5503 -366 
L 1631 -366 
z
" transform="scale(0.015625)"/>
        <path id="MalgunGothic-90e" d="M 5459 3272 
Q 4738 3378 4095 3717 
Q 3453 4056 3206 4416 
Q 2941 4056 2294 3717 
Q 1647 3378 972 3278 
L 697 3653 
Q 1484 3716 2148 4086 
Q 2813 4456 2950 4878 
L 1025 4878 
L 1025 5300 
L 5375 5300 
L 5375 4878 
L 3456 4878 
Q 3600 4459 4270 4084 
Q 4941 3709 5703 3653 
L 5459 3272 
z
M 403 2328 
L 403 2747 
L 5997 2747 
L 5997 2328 
L 403 2328 
z
M 3200 -500 
Q 2263 -500 1766 -200 
Q 1269 100 1269 628 
Q 1269 1144 1767 1442 
Q 2266 1741 3200 1741 
Q 4134 1741 4632 1442 
Q 5131 1144 5131 628 
Q 5131 100 4634 -200 
Q 4138 -500 3200 -500 
z
M 3200 1344 
Q 2481 1344 2117 1155 
Q 1753 966 1753 628 
Q 1753 284 2123 90 
Q 2494 -103 3200 -103 
Q 3903 -103 4275 90 
Q 4647 284 4647 628 
Q 4647 966 4281 1155 
Q 3916 1344 3200 1344 
z
" transform="scale(0.015625)"/>
        <path id="MalgunGothic-b6f" d="M 928 4397 
L 928 4800 
L 2963 4800 
L 2963 5459 
L 3438 5459 
L 3438 4800 
L 5472 4800 
L 5472 4397 
L 928 4397 
z
M 3200 2075 
Q 2234 2075 1743 2340 
Q 1253 2606 1253 3066 
Q 1253 3528 1753 3795 
Q 2253 4063 3200 4063 
Q 4144 4063 4642 3795 
Q 5141 3528 5141 3066 
Q 5141 2606 4650 2340 
Q 4159 2075 3200 2075 
z
M 3194 3675 
Q 2484 3675 2112 3503 
Q 1741 3331 1741 3066 
Q 1741 2797 2114 2630 
Q 2488 2463 3194 2463 
Q 3900 2463 4276 2628 
Q 4653 2794 4653 3066 
Q 4653 3334 4276 3504 
Q 3900 3675 3194 3675 
z
M 3438 1209 
L 3438 -563 
L 2963 -563 
L 2963 1209 
L 403 1209 
L 403 1625 
L 5997 1625 
L 5997 1209 
L 3438 1209 
z
" transform="scale(0.015625)"/>
        <path id="MalgunGothic-2f3" d="M 3003 703 
L 3003 2497 
L 403 2497 
L 403 2919 
L 4581 2919 
Q 4634 3438 4634 4788 
L 1338 4788 
L 1338 5203 
L 5100 5203 
Q 5100 3819 5038 2919 
L 5997 2919 
L 5997 2497 
L 3469 2497 
L 3469 703 
L 3003 703 
z
M 1338 -300 
L 1338 1638 
L 1806 1638 
L 1806 122 
L 5216 122 
L 5216 -300 
L 1338 -300 
z
" transform="scale(0.015625)"/>
        <path id="MalgunGothic-9b7" d="M 5466 3334 
Q 4759 3400 4114 3664 
Q 3469 3928 3213 4225 
Q 2966 3931 2323 3670 
Q 1681 3409 966 3341 
L 709 3750 
Q 1328 3725 2017 3970 
Q 2706 4216 2906 4603 
L 1056 4603 
L 1056 5019 
L 2969 5019 
L 2969 5550 
L 3444 5550 
L 3444 5019 
L 5344 5019 
L 5344 4603 
L 3494 4603 
Q 3691 4241 4356 3995 
Q 5022 3750 5691 3750 
L 5466 3334 
z
M 1319 -416 
L 1319 947 
L 4616 947 
L 4616 1478 
L 1319 1478 
L 1319 1888 
L 2963 1888 
L 2963 2484 
L 403 2484 
L 403 2900 
L 5997 2900 
L 5997 2484 
L 3438 2484 
L 3438 1888 
L 5075 1888 
L 5075 544 
L 1778 544 
L 1778 0 
L 5234 0 
L 5234 -416 
L 1319 -416 
z
" transform="scale(0.015625)"/>
        <path id="MalgunGothic-b44" d="M 494 4384 
L 494 4794 
L 2028 4794 
L 2028 5509 
L 2491 5509 
L 2491 4794 
L 4025 4794 
L 4025 4384 
L 494 4384 
z
M 3950 2578 
L 3950 2981 
L 4947 2981 
L 4947 3616 
L 3950 3616 
L 3950 4019 
L 4947 4019 
L 4947 5466 
L 5416 5466 
L 5416 2106 
L 4947 2106 
L 4947 2578 
L 3950 2578 
z
M 2259 2156 
Q 1572 2156 1186 2440 
Q 800 2725 800 3150 
Q 800 3578 1190 3856 
Q 1581 4134 2259 4134 
Q 2938 4134 3325 3853 
Q 3713 3572 3713 3150 
Q 3713 2731 3330 2443 
Q 2947 2156 2259 2156 
z
M 2259 3750 
Q 1784 3750 1526 3581 
Q 1269 3413 1269 3150 
Q 1269 2878 1531 2709 
Q 1794 2541 2259 2541 
Q 2719 2541 2981 2709 
Q 3244 2878 3244 3150 
Q 3244 3413 2986 3581 
Q 2728 3750 2259 3750 
z
M 1606 -481 
L 1606 856 
L 4953 856 
L 4953 1363 
L 1606 1363 
L 1606 1772 
L 5416 1772 
L 5416 459 
L 2075 459 
L 2075 -78 
L 5581 -78 
L 5581 -481 
L 1606 -481 
z
" transform="scale(0.015625)"/>
        <path id="MalgunGothic-80a" d="M 3647 3047 
Q 3184 2463 2400 2463 
Q 1738 2463 1305 2889 
Q 872 3316 872 3938 
Q 872 4556 1305 4982 
Q 1738 5409 2400 5409 
Q 3216 5409 3675 4794 
L 4947 4794 
L 4947 5466 
L 5416 5466 
L 5416 2272 
L 4947 2272 
L 4947 3047 
L 3647 3047 
z
M 2400 5006 
Q 1922 5006 1626 4698 
Q 1331 4391 1331 3938 
Q 1331 3481 1628 3170 
Q 1925 2859 2400 2859 
Q 2875 2859 3175 3168 
Q 3475 3478 3475 3938 
Q 3475 4394 3176 4700 
Q 2878 5006 2400 5006 
z
M 3866 3450 
L 4947 3450 
L 4947 4391 
L 3878 4391 
Q 3950 4163 3950 3938 
Q 3950 3709 3866 3450 
z
M 1728 -422 
L 1728 991 
L 4953 991 
L 4953 1528 
L 1728 1528 
L 1728 1941 
L 5416 1941 
L 5416 581 
L 2188 581 
L 2188 -6 
L 5581 -6 
L 5581 -422 
L 1728 -422 
z
" transform="scale(0.015625)"/>
       </defs>
       <use xlink:href="#MalgunGothic-766"/>
       <use xlink:href="#MalgunGothic-90e" transform="translate(100 0)"/>
       <use xlink:href="#MalgunGothic-b6f" transform="translate(200 0)"/>
       <use xlink:href="#MalgunGothic-2f3" transform="translate(300 0)"/>
       <use xlink:href="#MalgunGothic-9b7" transform="translate(400 0)"/>
       <use xlink:href="#MalgunGothic-b44" transform="translate(500 0)"/>
       <use xlink:href="#MalgunGothic-80a" transform="translate(600 0)"/>
      </g>
     </g>
    </g>
    <g id="ytick_7">
     <g id="text_14">
      <!-- 쯔쯔가무시증 -->
      <g style="fill: #262626" transform="translate(18.2 139.294043) scale(0.11 -0.11)">
       <defs>
        <path id="MalgunGothic-961" d="M 4488 4469 
L 4488 4347 
Q 4488 3369 5672 2463 
L 5338 2156 
Q 4469 2847 4269 3475 
Q 4106 2853 3128 1972 
L 2759 2253 
Q 4038 3278 4038 4353 
L 4038 4469 
L 2369 4469 
L 2369 4313 
Q 2369 3881 2539 3550 
Q 2709 3219 3181 2906 
L 2894 2572 
Q 2803 2656 2706 2734 
Q 2309 3047 2131 3384 
Q 1947 2859 1056 2125 
L 703 2406 
Q 1919 3350 1919 4319 
L 1919 4469 
L 775 4469 
L 775 4884 
L 5625 4884 
L 5625 4469 
L 4488 4469 
z
M 5997 391 
L 403 391 
L 403 806 
L 5997 806 
L 5997 391 
z
" transform="scale(0.015625)"/>
        <path id="MalgunGothic-27c" d="M 5094 2566 
L 5094 -563 
L 4628 -563 
L 4628 5466 
L 5094 5466 
L 5094 2981 
L 6175 2981 
L 6175 2566 
L 5094 2566 
z
M 3609 4928 
Q 3541 2363 897 863 
L 538 1241 
Q 1484 1631 2234 2506 
Q 2984 3381 3109 4513 
L 794 4513 
L 794 4928 
L 3609 4928 
z
" transform="scale(0.015625)"/>
        <path id="MalgunGothic-5d4" d="M 1331 2919 
L 1331 5247 
L 5063 5247 
L 5063 2919 
L 1331 2919 
z
M 4603 4831 
L 1791 4831 
L 1791 3334 
L 4603 3334 
L 4603 4831 
z
M 3438 1691 
L 3438 -563 
L 2963 -563 
L 2963 1691 
L 403 1691 
L 403 2106 
L 5997 2106 
L 5997 1691 
L 3438 1691 
z
" transform="scale(0.015625)"/>
        <path id="MalgunGothic-764" d="M 4947 -563 
L 4947 5466 
L 5416 5466 
L 5416 -563 
L 4947 -563 
z
M 3769 966 
Q 3263 1353 2820 1939 
Q 2378 2525 2259 2950 
Q 2116 2463 1687 1872 
Q 1259 1281 756 891 
L 397 1203 
Q 1141 1703 1581 2479 
Q 2022 3256 2022 4063 
L 2022 5050 
L 2484 5050 
L 2484 4084 
Q 2484 3303 2920 2556 
Q 3356 1809 4097 1331 
L 3769 966 
z
" transform="scale(0.015625)"/>
       </defs>
       <use xlink:href="#MalgunGothic-961"/>
       <use xlink:href="#MalgunGothic-961" transform="translate(100 0)"/>
       <use xlink:href="#MalgunGothic-27c" transform="translate(200 0)"/>
       <use xlink:href="#MalgunGothic-5d4" transform="translate(300 0)"/>
       <use xlink:href="#MalgunGothic-764" transform="translate(400 0)"/>
       <use xlink:href="#MalgunGothic-90e" transform="translate(500 0)"/>
      </g>
     </g>
    </g>
    <g id="ytick_8">
     <g id="text_15">
      <!-- 말라리아 -->
      <g style="fill: #262626" transform="translate(40.2 99.014323) scale(0.11 -0.11)">
       <defs>
        <path id="MalgunGothic-586" d="M 5125 3591 
L 5125 2419 
L 4659 2419 
L 4659 5466 
L 5125 5466 
L 5125 4006 
L 6034 4006 
L 6034 3591 
L 5125 3591 
z
M 756 2747 
L 756 5241 
L 3494 5241 
L 3494 2747 
L 756 2747 
z
M 3034 4825 
L 1216 4825 
L 1216 3156 
L 3034 3156 
L 3034 4825 
z
M 1447 -422 
L 1447 1069 
L 4666 1069 
L 4666 1678 
L 1447 1678 
L 1447 2094 
L 5125 2094 
L 5125 666 
L 1906 666 
L 1906 -6 
L 5294 -6 
L 5294 -422 
L 1447 -422 
z
" transform="scale(0.015625)"/>
        <path id="MalgunGothic-502" d="M 5094 2503 
L 5094 -563 
L 4628 -563 
L 4628 5466 
L 5094 5466 
L 5094 2925 
L 6138 2925 
L 6138 2503 
L 5094 2503 
z
M 806 794 
L 806 3169 
L 3003 3169 
L 3003 4506 
L 806 4506 
L 806 4922 
L 3469 4922 
L 3469 2759 
L 1275 2759 
L 1275 1203 
Q 3419 1203 4063 1338 
L 4128 928 
Q 3284 794 806 794 
z
" transform="scale(0.015625)"/>
        <path id="MalgunGothic-7c5" d="M 5094 2600 
L 5094 -563 
L 4628 -563 
L 4628 5466 
L 5094 5466 
L 5094 3022 
L 6113 3022 
L 6113 2600 
L 5094 2600 
z
M 2194 966 
Q 1509 966 1087 1512 
Q 666 2059 666 3016 
Q 666 3981 1083 4522 
Q 1500 5063 2194 5063 
Q 2891 5063 3308 4514 
Q 3725 3966 3725 3016 
Q 3725 2063 3306 1514 
Q 2888 966 2194 966 
z
M 2194 4647 
Q 1716 4647 1420 4208 
Q 1125 3769 1125 3016 
Q 1125 2275 1423 1828 
Q 1722 1381 2194 1381 
Q 2663 1381 2963 1831 
Q 3263 2281 3263 3016 
Q 3263 3766 2969 4206 
Q 2675 4647 2194 4647 
z
" transform="scale(0.015625)"/>
       </defs>
       <use xlink:href="#MalgunGothic-586"/>
       <use xlink:href="#MalgunGothic-502" transform="translate(100 0)"/>
       <use xlink:href="#MalgunGothic-579" transform="translate(200 0)"/>
       <use xlink:href="#MalgunGothic-7c5" transform="translate(300 0)"/>
      </g>
     </g>
    </g>
   </g>
   <g id="patch_3">
    <path d="M 93.7 392.386909 
L 93.7 392.386909 
L 93.7 360.163133 
L 93.7 360.163133 
z
" clip-path="url(#pde1261b1b3)" style="fill: #f0986e; stroke: #804126; stroke-width: 0.9; stroke-linejoin: miter"/>
   </g>
   <g id="patch_4">
    <path d="M 93.7 352.107189 
L 111.772156 352.107189 
L 111.772156 319.883413 
L 93.7 319.883413 
z
" clip-path="url(#pde1261b1b3)" style="fill: #f0986e; stroke: #804126; stroke-width: 0.9; stroke-linejoin: miter"/>
   </g>
   <g id="patch_5">
    <path d="M 93.7 311.827469 
L 185.776501 311.827469 
L 185.776501 279.603692 
L 93.7 279.603692 
z
" clip-path="url(#pde1261b1b3)" style="fill: #f0986e; stroke: #804126; stroke-width: 0.9; stroke-linejoin: miter"/>
   </g>
   <g id="patch_6">
    <path d="M 93.7 271.547748 
L 206.640386 271.547748 
L 206.640386 239.323972 
L 93.7 239.323972 
z
" clip-path="url(#pde1261b1b3)" style="fill: #f0986e; stroke: #804126; stroke-width: 0.9; stroke-linejoin: miter"/>
   </g>
   <g id="patch_7">
    <path d="M 93.7 231.268028 
L 276.055767 231.268028 
L 276.055767 199.044252 
L 93.7 199.044252 
z
" clip-path="url(#pde1261b1b3)" style="fill: #f0986e; stroke: #804126; stroke-width: 0.9; stroke-linejoin: miter"/>
   </g>
   <g id="patch_8">
    <path d="M 93.7 190.988308 
L 479.305096 190.988308 
L 479.305096 158.764531 
L 93.7 158.764531 
z
" clip-path="url(#pde1261b1b3)" style="fill: #f0986e; stroke: #804126; stroke-width: 0.9; stroke-linejoin: miter"/>
   </g>
   <g id="patch_9">
    <path d="M 93.7 150.708587 
L 512.753701 150.708587 
L 512.753701 118.484811 
L 93.7 118.484811 
z
" clip-path="url(#pde1261b1b3)" style="fill: #f0986e; stroke: #804126; stroke-width: 0.9; stroke-linejoin: miter"/>
   </g>
   <g id="patch_10">
    <path d="M 93.7 110.428867 
L 584.533333 110.428867 
L 584.533333 78.205091 
L 93.7 78.205091 
z
" clip-path="url(#pde1261b1b3)" style="fill: #f0986e; stroke: #804126; stroke-width: 0.9; stroke-linejoin: miter"/>
   </g>
   <g id="patch_11">
    <path d="M 93.7 408.096 
L 93.7 62.496 
" style="fill: none; stroke: #d7dbe7; stroke-width: 1.25; stroke-linejoin: miter; stroke-linecap: square"/>
   </g>
   <g id="patch_12">
    <path d="M 93.7 408.096 
L 623.8 408.096 
" style="fill: none; stroke: #d7dbe7; stroke-width: 1.25; stroke-linejoin: miter; stroke-linecap: square"/>
   </g>
   <g id="text_16">
    <!-- 0.0 -->
    <g style="fill: #1f2430" transform="translate(99.59 378.973263) scale(0.09 -0.09)">
     <defs>
      <path id="MalgunGothic-11" d="M 356 275 
Q 356 422 459 523 
Q 563 625 700 625 
Q 838 625 941 523 
Q 1044 422 1044 275 
Q 1044 138 942 33 
Q 841 -72 700 -72 
Q 559 -72 457 29 
Q 356 131 356 275 
z
" transform="scale(0.015625)"/>
     </defs>
     <use xlink:href="#MalgunGothic-13"/>
     <use xlink:href="#MalgunGothic-11" transform="translate(55.078125 0)"/>
     <use xlink:href="#MalgunGothic-13" transform="translate(76.953125 0)"/>
    </g>
   </g>
   <g id="text_17">
    <!-- 3.7 -->
    <g style="fill: #1f2430" transform="translate(117.662156 338.693543) scale(0.09 -0.09)">
     <defs>
      <path id="MalgunGothic-16" d="M 416 719 
Q 891 344 1478 344 
Q 1959 344 2254 587 
Q 2550 831 2550 1247 
Q 2550 2169 1253 2169 
L 872 2169 
L 872 2591 
L 1234 2591 
Q 2388 2591 2388 3453 
Q 2388 4250 1509 4250 
Q 1022 4250 594 3916 
L 594 4413 
Q 1031 4675 1634 4675 
Q 2184 4675 2539 4372 
Q 2894 4069 2894 3581 
Q 2894 2678 1972 2409 
L 1972 2400 
Q 2469 2356 2764 2053 
Q 3059 1750 3059 1300 
Q 3059 672 2604 297 
Q 2150 -78 1450 -78 
Q 806 -78 416 169 
L 416 719 
z
" transform="scale(0.015625)"/>
      <path id="MalgunGothic-1a" d="M 3213 4297 
Q 2478 3006 2064 1918 
Q 1650 831 1550 0 
L 1009 0 
Q 1084 531 1290 1176 
Q 1497 1822 1815 2537 
Q 2134 3253 2631 4147 
L 291 4147 
L 291 4600 
L 3213 4600 
L 3213 4297 
z
" transform="scale(0.015625)"/>
     </defs>
     <use xlink:href="#MalgunGothic-16"/>
     <use xlink:href="#MalgunGothic-11" transform="translate(55.078125 0)"/>
     <use xlink:href="#MalgunGothic-1a" transform="translate(76.953125 0)"/>
    </g>
   </g>
   <g id="text_18">
    <!-- 18.8 -->
    <g style="fill: #1f2430" transform="translate(191.666501 298.413823) scale(0.09 -0.09)">
     <use xlink:href="#MalgunGothic-14"/>
     <use xlink:href="#MalgunGothic-1b" transform="translate(55.078125 0)"/>
     <use xlink:href="#MalgunGothic-11" transform="translate(110.15625 0)"/>
     <use xlink:href="#MalgunGothic-1b" transform="translate(132.03125 0)"/>
    </g>
   </g>
   <g id="text_19">
    <!-- 23.0 -->
    <g style="fill: #1f2430" transform="translate(212.530386 258.134102) scale(0.09 -0.09)">
     <use xlink:href="#MalgunGothic-15"/>
     <use xlink:href="#MalgunGothic-16" transform="translate(55.078125 0)"/>
     <use xlink:href="#MalgunGothic-11" transform="translate(110.15625 0)"/>
     <use xlink:href="#MalgunGothic-13" transform="translate(132.03125 0)"/>
    </g>
   </g>
   <g id="text_20">
    <!-- 37.2 -->
    <g style="fill: #1f2430" transform="translate(281.945767 217.854382) scale(0.09 -0.09)">
     <use xlink:href="#MalgunGothic-16"/>
     <use xlink:href="#MalgunGothic-1a" transform="translate(55.078125 0)"/>
     <use xlink:href="#MalgunGothic-11" transform="translate(110.15625 0)"/>
     <use xlink:href="#MalgunGothic-15" transform="translate(132.03125 0)"/>
    </g>
   </g>
   <g id="text_21">
    <!-- 78.6 -->
    <g style="fill: #1f2430" transform="translate(485.195096 177.574662) scale(0.09 -0.09)">
     <use xlink:href="#MalgunGothic-1a"/>
     <use xlink:href="#MalgunGothic-1b" transform="translate(55.078125 0)"/>
     <use xlink:href="#MalgunGothic-11" transform="translate(110.15625 0)"/>
     <use xlink:href="#MalgunGothic-19" transform="translate(132.03125 0)"/>
    </g>
   </g>
   <g id="text_22">
    <!-- 85.4 -->
    <g style="fill: #1f2430" transform="translate(518.643701 137.294941) scale(0.09 -0.09)">
     <defs>
      <path id="MalgunGothic-18" d="M 3072 1403 
Q 3072 722 2636 322 
Q 2200 -78 1469 -78 
Q 828 -78 516 113 
L 516 650 
Q 994 344 1475 344 
Q 1969 344 2270 630 
Q 2572 916 2572 1372 
Q 2572 1838 2265 2092 
Q 1959 2347 1381 2347 
Q 994 2347 603 2300 
L 759 4600 
L 2869 4600 
L 2869 4147 
L 1206 4147 
L 1106 2763 
Q 1347 2784 1547 2784 
Q 2263 2784 2667 2414 
Q 3072 2044 3072 1403 
z
" transform="scale(0.015625)"/>
     </defs>
     <use xlink:href="#MalgunGothic-1b"/>
     <use xlink:href="#MalgunGothic-18" transform="translate(55.078125 0)"/>
     <use xlink:href="#MalgunGothic-11" transform="translate(110.15625 0)"/>
     <use xlink:href="#MalgunGothic-17" transform="translate(132.03125 0)"/>
    </g>
   </g>
   <g id="text_23">
    <!-- 100.0 -->
    <g style="fill: #1f2430" transform="translate(590.423333 97.015221) scale(0.09 -0.09)">
     <use xlink:href="#MalgunGothic-14"/>
     <use xlink:href="#MalgunGothic-13" transform="translate(55.078125 0)"/>
     <use xlink:href="#MalgunGothic-13" transform="translate(110.15625 0)"/>
     <use xlink:href="#MalgunGothic-11" transform="translate(165.234375 0)"/>
     <use xlink:href="#MalgunGothic-13" transform="translate(187.109375 0)"/>
    </g>
   </g>
  </g>
  <g id="text_24">
   <!-- 감염병 네비게이터 설명 우선순위 -->
   <g style="fill: #1f2430" transform="translate(93.7 20.010937) scale(0.15 -0.15)">
    <defs>
     <path id="MalgunGothicBold-280" d="M 5259 3328 
L 5259 2053 
L 4475 2053 
L 4475 5466 
L 5259 5466 
L 5259 3988 
L 6175 3988 
L 6175 3328 
L 5259 3328 
z
M 3675 5203 
Q 3572 4138 2861 3292 
Q 2150 2447 966 1941 
L 422 2547 
Q 1253 2816 1883 3362 
Q 2513 3909 2706 4544 
L 775 4544 
L 775 5203 
L 3675 5203 
z
M 1472 -434 
L 1472 1800 
L 5259 1800 
L 5259 -434 
L 1472 -434 
z
M 4481 1141 
L 2253 1141 
L 2253 219 
L 4481 219 
L 4481 1141 
z
" transform="scale(0.015625)"/>
     <path id="MalgunGothicBold-80a" d="M 3425 2700 
Q 2950 2181 2188 2181 
Q 1497 2181 1033 2618 
Q 569 3056 569 3763 
Q 569 4459 1028 4901 
Q 1488 5344 2188 5344 
Q 3056 5344 3525 4691 
L 4788 4691 
L 4788 5466 
L 5563 5466 
L 5563 1966 
L 4788 1966 
L 4788 2700 
L 3425 2700 
z
M 2188 4697 
Q 1809 4697 1576 4447 
Q 1344 4197 1344 3763 
Q 1344 3331 1576 3082 
Q 1809 2834 2188 2834 
Q 2569 2834 2801 3082 
Q 3034 3331 3034 3763 
Q 3034 4200 2801 4448 
Q 2569 4697 2188 4697 
z
M 3750 3334 
L 4788 3334 
L 4788 4056 
L 3775 4056 
Q 3803 3916 3803 3763 
Q 3803 3547 3750 3334 
z
M 1797 -434 
L 1797 1716 
L 5569 1716 
L 5569 -434 
L 1797 -434 
z
M 4800 1063 
L 2566 1063 
L 2566 219 
L 4800 219 
L 4800 1063 
z
" transform="scale(0.015625)"/>
     <path id="MalgunGothicBold-638" d="M 716 2344 
L 716 5269 
L 1484 5269 
L 1484 4397 
L 2841 4397 
L 2841 5269 
L 3616 5269 
L 3616 4703 
L 4788 4703 
L 4788 5466 
L 5556 5466 
L 5556 2003 
L 4788 2003 
L 4788 2834 
L 3616 2834 
L 3616 2344 
L 716 2344 
z
M 3616 3456 
L 4788 3456 
L 4788 4084 
L 3616 4084 
L 3616 3456 
z
M 2841 3738 
L 1484 3738 
L 1484 2994 
L 2841 2994 
L 2841 3738 
z
M 3659 -538 
Q 2725 -538 2201 -189 
Q 1678 159 1678 716 
Q 1678 1269 2203 1620 
Q 2728 1972 3659 1972 
Q 4594 1972 5122 1619 
Q 5650 1266 5650 716 
Q 5650 159 5123 -189 
Q 4597 -538 3659 -538 
z
M 3659 1325 
Q 3063 1325 2767 1156 
Q 2472 988 2472 716 
Q 2472 444 2770 276 
Q 3069 109 3659 109 
Q 4253 109 4554 275 
Q 4856 441 4856 716 
Q 4856 984 4557 1154 
Q 4259 1325 3659 1325 
z
" transform="scale(0.015625)"/>
     <path id="MalgunGothicBold-3" transform="scale(0.015625)"/>
     <path id="MalgunGothicBold-3c9" d="M 4819 -563 
L 4819 5466 
L 5594 5466 
L 5594 -563 
L 4819 -563 
z
M 3572 -372 
L 3572 3109 
L 2400 3109 
L 2400 3763 
L 3572 3763 
L 3572 5344 
L 4341 5344 
L 4341 -372 
L 3572 -372 
z
M 3238 1338 
Q 2566 1231 2055 1220 
Q 1544 1209 750 1209 
L 750 4991 
L 1522 4991 
L 1522 1869 
Q 2581 1869 3156 1972 
L 3238 1338 
z
" transform="scale(0.015625)"/>
     <path id="MalgunGothicBold-675" d="M 4684 -563 
L 4684 5466 
L 5453 5466 
L 5453 -563 
L 4684 -563 
z
M 744 1069 
L 744 5031 
L 1509 5031 
L 1509 3669 
L 2900 3669 
L 2900 5031 
L 3681 5031 
L 3681 1069 
L 744 1069 
z
M 2900 3009 
L 1509 3009 
L 1509 1728 
L 2900 1728 
L 2900 3009 
z
" transform="scale(0.015625)"/>
     <path id="MalgunGothicBold-2ac" d="M 4872 -563 
L 4872 5466 
L 5650 5466 
L 5650 -563 
L 4872 -563 
z
M 3091 4959 
Q 3003 4038 2797 3400 
L 3603 3400 
L 3603 5344 
L 4378 5344 
L 4378 -384 
L 3603 -384 
L 3603 2747 
L 2541 2747 
Q 2344 2319 1911 1744 
Q 1478 1169 1013 781 
L 353 1275 
Q 950 1628 1533 2476 
Q 2116 3325 2253 4306 
L 684 4306 
L 684 4959 
L 3091 4959 
z
" transform="scale(0.015625)"/>
     <path id="MalgunGothicBold-884" d="M 4691 -563 
L 4691 5466 
L 5466 5466 
L 5466 -563 
L 4691 -563 
z
M 2203 903 
Q 1484 903 1050 1468 
Q 616 2034 616 2994 
Q 616 3969 1048 4525 
Q 1481 5081 2203 5081 
Q 2922 5081 3351 4520 
Q 3781 3959 3781 2994 
Q 3781 2025 3353 1464 
Q 2925 903 2203 903 
z
M 2203 4416 
Q 1844 4416 1612 4031 
Q 1381 3647 1381 2988 
Q 1381 2338 1618 1950 
Q 1856 1563 2203 1563 
Q 2547 1563 2784 1945 
Q 3022 2328 3022 2988 
Q 3022 3647 2792 4031 
Q 2563 4416 2203 4416 
z
" transform="scale(0.015625)"/>
     <path id="MalgunGothicBold-a5b" d="M 4800 -563 
L 4800 2619 
L 3700 2619 
L 3700 3278 
L 4800 3278 
L 4800 5466 
L 5569 5466 
L 5569 -563 
L 4800 -563 
z
M 1466 2834 
L 1466 1772 
L 1778 1772 
Q 3316 1772 3994 1863 
L 4038 1216 
Q 3413 1144 2855 1131 
Q 2297 1119 697 1119 
L 697 4941 
L 3713 4941 
L 3713 4281 
L 1466 4281 
L 1466 3488 
L 3225 3488 
L 3225 2834 
L 1466 2834 
z
" transform="scale(0.015625)"/>
     <path id="MalgunGothicBold-6f3" d="M 4794 2438 
L 4794 3897 
L 3513 3897 
L 3513 4531 
L 4794 4531 
L 4794 5466 
L 5563 5466 
L 5563 2438 
L 4794 2438 
z
M 3566 2503 
Q 2647 2991 2216 3628 
Q 2041 3294 1644 2916 
Q 1247 2538 838 2344 
L 313 2881 
Q 1016 3184 1414 3682 
Q 1813 4181 1813 4769 
L 1813 5338 
L 2566 5338 
L 2566 4769 
Q 2566 4219 2992 3750 
Q 3419 3281 4031 3097 
L 3566 2503 
z
M 1663 -466 
L 1663 1178 
L 4794 1178 
L 4794 1544 
L 1663 1544 
L 1663 2203 
L 5563 2203 
L 5563 575 
L 2438 575 
L 2438 191 
L 5716 191 
L 5716 -466 
L 1663 -466 
z
" transform="scale(0.015625)"/>
     <path id="MalgunGothicBold-5b5" d="M 750 2328 
L 750 5125 
L 3634 5125 
L 3634 4628 
L 4788 4628 
L 4788 5466 
L 5569 5466 
L 5569 1984 
L 4788 1984 
L 4788 2778 
L 3634 2778 
L 3634 2328 
L 750 2328 
z
M 2869 4469 
L 1516 4469 
L 1516 2988 
L 2869 2988 
L 2869 4469 
z
M 3634 3413 
L 4788 3413 
L 4788 4000 
L 3634 4000 
L 3634 3413 
z
M 3634 -556 
Q 2703 -556 2176 -209 
Q 1650 138 1650 697 
Q 1650 1253 2178 1603 
Q 2706 1953 3634 1953 
Q 4566 1953 5095 1601 
Q 5625 1250 5625 697 
Q 5625 141 5095 -207 
Q 4566 -556 3634 -556 
z
M 3634 1306 
Q 3031 1306 2737 1134 
Q 2444 963 2444 697 
Q 2444 428 2741 259 
Q 3038 91 3634 91 
Q 4228 91 4529 256 
Q 4831 422 4831 697 
Q 4831 966 4532 1136 
Q 4234 1306 3634 1306 
z
" transform="scale(0.015625)"/>
     <path id="MalgunGothicBold-846" d="M 3200 2619 
Q 2272 2619 1731 3000 
Q 1191 3381 1191 4013 
Q 1191 4625 1730 4997 
Q 2269 5369 3188 5369 
Q 4125 5369 4661 5000 
Q 5197 4631 5197 4013 
Q 5197 3384 4665 3001 
Q 4134 2619 3200 2619 
z
M 3188 4744 
Q 2597 4744 2294 4548 
Q 1991 4353 1991 4013 
Q 1991 3675 2295 3479 
Q 2600 3284 3188 3284 
Q 3769 3284 4076 3478 
Q 4384 3672 4384 4013 
Q 4384 4353 4076 4548 
Q 3769 4744 3188 4744 
z
M 3591 1478 
L 3591 -563 
L 2803 -563 
L 2803 1478 
L 403 1478 
L 403 2144 
L 5997 2144 
L 5997 1478 
L 3591 1478 
z
" transform="scale(0.015625)"/>
     <path id="MalgunGothicBold-6f1" d="M 4794 1153 
L 4794 3481 
L 3525 3481 
L 3525 4147 
L 4794 4147 
L 4794 5466 
L 5563 5466 
L 5563 1153 
L 4794 1153 
z
M 3591 1953 
Q 2734 2363 2216 3188 
Q 2038 2834 1608 2384 
Q 1178 1934 872 1772 
L 300 2316 
Q 959 2609 1382 3182 
Q 1806 3756 1806 4334 
L 1806 5209 
L 2584 5209 
L 2584 4359 
Q 2584 3772 3028 3253 
Q 3472 2734 4091 2559 
L 3591 1953 
z
M 1672 -353 
L 1672 1703 
L 2456 1703 
L 2456 306 
L 5678 306 
L 5678 -353 
L 1672 -353 
z
" transform="scale(0.015625)"/>
     <path id="MalgunGothicBold-738" d="M 5403 3084 
Q 4791 3166 4178 3480 
Q 3566 3794 3200 4191 
Q 2881 3800 2286 3498 
Q 1691 3197 1031 3097 
L 616 3700 
Q 1588 3750 2198 4186 
Q 2809 4622 2809 5013 
L 2809 5363 
L 3584 5363 
L 3584 5013 
Q 3584 4634 4201 4198 
Q 4819 3763 5772 3688 
L 5403 3084 
z
M 3653 1934 
L 3653 800 
L 2869 800 
L 2869 1934 
L 403 1934 
L 403 2591 
L 5997 2591 
L 5997 1934 
L 3653 1934 
z
M 1222 -306 
L 1222 1472 
L 2009 1472 
L 2009 353 
L 5253 353 
L 5253 -306 
L 1222 -306 
z
" transform="scale(0.015625)"/>
     <path id="MalgunGothicBold-85f" d="M 4775 -563 
L 4775 5466 
L 5556 5466 
L 5556 -563 
L 4775 -563 
z
M 2388 2778 
Q 1675 2778 1228 3131 
Q 781 3484 781 4050 
Q 781 4616 1229 4973 
Q 1678 5331 2388 5331 
Q 3100 5331 3553 4973 
Q 4006 4616 4006 4050 
Q 4006 3497 3553 3137 
Q 3100 2778 2388 2778 
z
M 2394 4709 
Q 1997 4709 1762 4532 
Q 1528 4356 1528 4050 
Q 1528 3766 1778 3583 
Q 2028 3400 2394 3400 
Q 2766 3400 3008 3581 
Q 3250 3763 3250 4050 
Q 3250 4347 3012 4528 
Q 2775 4709 2394 4709 
z
M 2022 -397 
L 2022 1656 
Q 1025 1631 403 1631 
L 325 2303 
Q 2691 2303 4459 2400 
L 4506 1734 
L 2803 1678 
L 2803 -397 
L 2022 -397 
z
" transform="scale(0.015625)"/>
    </defs>
    <use xlink:href="#MalgunGothicBold-280"/>
    <use xlink:href="#MalgunGothicBold-80a" transform="translate(100 0)"/>
    <use xlink:href="#MalgunGothicBold-638" transform="translate(200 0)"/>
    <use xlink:href="#MalgunGothicBold-3" transform="translate(300 0)"/>
    <use xlink:href="#MalgunGothicBold-3c9" transform="translate(335.15625 0)"/>
    <use xlink:href="#MalgunGothicBold-675" transform="translate(435.15625 0)"/>
    <use xlink:href="#MalgunGothicBold-2ac" transform="translate(535.15625 0)"/>
    <use xlink:href="#MalgunGothicBold-884" transform="translate(635.15625 0)"/>
    <use xlink:href="#MalgunGothicBold-a5b" transform="translate(735.15625 0)"/>
    <use xlink:href="#MalgunGothicBold-3" transform="translate(835.15625 0)"/>
    <use xlink:href="#MalgunGothicBold-6f3" transform="translate(870.3125 0)"/>
    <use xlink:href="#MalgunGothicBold-5b5" transform="translate(970.3125 0)"/>
    <use xlink:href="#MalgunGothicBold-3" transform="translate(1070.3125 0)"/>
    <use xlink:href="#MalgunGothicBold-846" transform="translate(1105.46875 0)"/>
    <use xlink:href="#MalgunGothicBold-6f1" transform="translate(1205.46875 0)"/>
    <use xlink:href="#MalgunGothicBold-738" transform="translate(1305.46875 0)"/>
    <use xlink:href="#MalgunGothicBold-85f" transform="translate(1405.46875 0)"/>
   </g>
  </g>
  <g id="text_25">
   <!-- AMR 35% + 지역집중도 25% + 계절성 20% + 행동가능성 20%; 발병확률이 아님 -->
   <g style="fill: #6f768a" transform="translate(93.7 36.123812) scale(0.095 -0.095)">
    <defs>
     <path id="MalgunGothic-30" d="M 4756 0 
L 4756 3106 
Q 4756 3466 4803 3994 
L 4788 3994 
Q 4713 3684 4653 3559 
L 3050 0 
L 2822 0 
L 1222 3534 
Q 1159 3669 1091 3994 
L 1075 3994 
Q 1100 3822 1100 3116 
L 1100 0 
L 609 0 
L 609 4600 
L 1269 4600 
L 2706 1359 
Q 2881 966 2922 816 
L 2941 816 
Q 2988 944 3166 1375 
L 4638 4600 
L 5259 4600 
L 5259 0 
L 4756 0 
z
" transform="scale(0.015625)"/>
     <path id="MalgunGothic-35" d="M 3866 0 
L 3259 0 
L 2488 1294 
Q 2241 1706 2044 1837 
Q 1847 1969 1569 1969 
L 1113 1969 
L 1113 0 
L 609 0 
L 609 4600 
L 1963 4600 
Q 2597 4600 2970 4272 
Q 3344 3944 3344 3375 
Q 3344 2422 2325 2138 
L 2325 2125 
Q 2519 2041 2645 1902 
Q 2772 1763 3006 1381 
L 3866 0 
z
M 1113 4128 
L 1113 2438 
L 1866 2438 
Q 2291 2438 2552 2686 
Q 2813 2934 2813 3334 
Q 2813 3709 2570 3918 
Q 2328 4128 1872 4128 
L 1113 4128 
z
" transform="scale(0.015625)"/>
     <path id="MalgunGothic-8" d="M 253 3444 
Q 253 3997 547 4331 
Q 841 4666 1353 4666 
Q 1847 4666 2115 4355 
Q 2384 4044 2384 3509 
Q 2384 2972 2082 2633 
Q 1781 2294 1288 2294 
Q 816 2294 534 2608 
Q 253 2922 253 3444 
z
M 666 3475 
Q 666 3091 841 2864 
Q 1016 2638 1322 2638 
Q 1631 2638 1803 2863 
Q 1975 3088 1975 3494 
Q 1975 3894 1804 4112 
Q 1634 4331 1334 4331 
Q 1022 4331 844 4098 
Q 666 3866 666 3475 
z
M 4350 4600 
L 1403 -34 
L 966 -34 
L 3909 4600 
L 4350 4600 
z
M 2988 1078 
Q 2988 1641 3284 1977 
Q 3581 2313 4081 2313 
Q 4569 2313 4841 2000 
Q 5113 1688 5113 1138 
Q 5113 600 4809 264 
Q 4506 -72 4019 -72 
Q 3550 -72 3269 245 
Q 2988 563 2988 1078 
z
M 3394 1103 
Q 3394 725 3570 498 
Q 3747 272 4050 272 
Q 4356 272 4529 501 
Q 4703 731 4703 1134 
Q 4703 1534 4534 1748 
Q 4366 1963 4066 1963 
Q 3753 1963 3573 1731 
Q 3394 1500 3394 1103 
z
" transform="scale(0.015625)"/>
     <path id="MalgunGothic-e" d="M 3750 1706 
L 2450 1706 
L 2450 413 
L 2041 413 
L 2041 1706 
L 744 1706 
L 744 2122 
L 2041 2122 
L 2041 3416 
L 2450 3416 
L 2450 2122 
L 3750 2122 
L 3750 1706 
z
" transform="scale(0.015625)"/>
     <path id="MalgunGothic-90f" d="M 4884 -563 
L 4884 5466 
L 5350 5466 
L 5350 -563 
L 4884 -563 
z
M 3775 909 
Q 3228 1338 2822 1881 
Q 2416 2425 2297 2859 
Q 2178 2397 1756 1814 
Q 1334 1231 825 825 
L 475 1147 
Q 1191 1638 1625 2425 
Q 2059 3213 2059 4019 
L 2059 4525 
L 716 4525 
L 716 4941 
L 3884 4941 
L 3884 4525 
L 2528 4525 
L 2528 4038 
Q 2528 3238 2968 2459 
Q 3409 1681 4097 1269 
L 3775 909 
z
" transform="scale(0.015625)"/>
     <path id="MalgunGothic-807" d="M 3669 2841 
Q 3209 2259 2400 2259 
Q 1725 2259 1284 2684 
Q 844 3109 844 3788 
Q 844 4469 1284 4897 
Q 1725 5325 2400 5325 
Q 3247 5325 3706 4684 
L 4947 4684 
L 4947 5466 
L 5416 5466 
L 5416 2047 
L 4947 2047 
L 4947 2841 
L 3669 2841 
z
M 2400 4916 
Q 1919 4916 1616 4611 
Q 1313 4306 1313 3788 
Q 1313 3269 1613 2966 
Q 1913 2663 2400 2663 
Q 2894 2663 3194 2966 
Q 3494 3269 3494 3788 
Q 3494 4306 3191 4611 
Q 2888 4916 2400 4916 
z
M 3878 3250 
L 4947 3250 
L 4947 4269 
L 3897 4269 
Q 3963 4063 3963 3788 
Q 3963 3494 3878 3250 
z
M 4947 -500 
L 4947 1300 
L 1522 1300 
L 1522 1716 
L 5416 1716 
L 5416 -500 
L 4947 -500 
z
" transform="scale(0.015625)"/>
     <path id="MalgunGothic-916" d="M 4941 2328 
L 4941 5466 
L 5409 5466 
L 5409 2328 
L 4941 2328 
z
M 3872 2388 
Q 3469 2600 3037 2997 
Q 2606 3394 2438 3750 
Q 2269 3366 1859 2936 
Q 1450 2506 978 2234 
L 641 2547 
Q 1316 2875 1759 3462 
Q 2203 4050 2203 4678 
L 2203 4781 
L 838 4781 
L 838 5197 
L 4006 5197 
L 4006 4781 
L 2656 4781 
L 2656 4678 
Q 2656 4081 3120 3523 
Q 3584 2966 4184 2719 
L 3872 2388 
z
M 1672 -397 
L 1672 2003 
L 2131 2003 
L 2131 1172 
L 4947 1172 
L 4947 2003 
L 5409 2003 
L 5409 -397 
L 1672 -397 
z
M 4947 756 
L 2131 756 
L 2131 13 
L 4947 13 
L 4947 756 
z
" transform="scale(0.015625)"/>
     <path id="MalgunGothic-8f8" d="M 5459 3272 
Q 4750 3372 4097 3714 
Q 3444 4056 3206 4422 
Q 2984 4094 2328 3736 
Q 1672 3378 972 3278 
L 697 3653 
Q 1478 3713 2139 4083 
Q 2800 4453 2950 4878 
L 1025 4878 
L 1025 5300 
L 5375 5300 
L 5375 4878 
L 3456 4878 
Q 3597 4456 4251 4090 
Q 4906 3725 5703 3653 
L 5459 3272 
z
M 2963 1734 
L 2963 2431 
L 403 2431 
L 403 2853 
L 5997 2853 
L 5997 2431 
L 3438 2431 
L 3438 1734 
Q 4269 1697 4700 1400 
Q 5131 1103 5131 628 
Q 5131 100 4634 -200 
Q 4138 -500 3200 -500 
Q 2263 -500 1766 -200 
Q 1269 100 1269 628 
Q 1269 1103 1700 1400 
Q 2131 1697 2963 1734 
z
M 3200 1344 
Q 2481 1344 2117 1155 
Q 1753 966 1753 628 
Q 1753 284 2123 90 
Q 2494 -103 3200 -103 
Q 3903 -103 4275 90 
Q 4647 284 4647 628 
Q 4647 966 4281 1155 
Q 3916 1344 3200 1344 
z
" transform="scale(0.015625)"/>
     <path id="MalgunGothic-466" d="M 403 372 
L 403 788 
L 2963 788 
L 2963 2181 
L 1350 2181 
L 1350 4897 
L 5050 4897 
L 5050 4481 
L 1819 4481 
L 1819 2600 
L 5147 2600 
L 5147 2181 
L 3438 2181 
L 3438 788 
L 5997 788 
L 5997 372 
L 403 372 
z
" transform="scale(0.015625)"/>
     <path id="MalgunGothic-2c3" d="M 5044 -563 
L 5044 5466 
L 5509 5466 
L 5509 -563 
L 5044 -563 
z
M 3938 -366 
L 3938 1925 
L 2700 1925 
L 2700 2344 
L 3938 2344 
L 3938 3616 
L 2869 3616 
Q 2366 1953 813 878 
L 441 1197 
Q 1263 1634 1891 2575 
Q 2519 3516 2584 4531 
L 800 4531 
L 800 4941 
L 3078 4941 
Q 3056 4409 2969 4031 
L 3938 4031 
L 3938 5344 
L 4397 5344 
L 4397 -366 
L 3938 -366 
z
" transform="scale(0.015625)"/>
     <path id="MalgunGothic-8b8" d="M 4878 2450 
L 4878 3841 
L 3531 3841 
L 3531 4263 
L 4878 4263 
L 4878 5466 
L 5344 5466 
L 5344 2450 
L 4878 2450 
z
M 3688 2631 
Q 3250 2822 2845 3167 
Q 2441 3513 2266 3841 
Q 1853 2978 831 2450 
L 500 2766 
Q 1203 3097 1618 3609 
Q 2034 4122 2034 4684 
L 2034 4844 
L 684 4844 
L 684 5259 
L 3788 5259 
L 3788 4844 
L 2491 4844 
L 2491 4684 
Q 2491 4131 2933 3664 
Q 3375 3197 4000 2988 
L 3688 2631 
z
M 1631 -422 
L 1631 1069 
L 4884 1069 
L 4884 1716 
L 1631 1716 
L 1631 2131 
L 5344 2131 
L 5344 666 
L 2094 666 
L 2094 -6 
L 5509 -6 
L 5509 -422 
L 1631 -422 
z
" transform="scale(0.015625)"/>
     <path id="MalgunGothic-470" d="M 403 2119 
L 403 2534 
L 2963 2534 
L 2963 3316 
L 1338 3316 
L 1338 5325 
L 5081 5325 
L 5081 4909 
L 1813 4909 
L 1813 3731 
L 5153 3731 
L 5153 3316 
L 3438 3316 
L 3438 2534 
L 5997 2534 
L 5997 2119 
L 403 2119 
z
M 3200 -513 
Q 2247 -513 1740 -211 
Q 1234 91 1234 603 
Q 1234 1116 1742 1416 
Q 2250 1716 3200 1716 
Q 4150 1716 4658 1416 
Q 5166 1116 5166 603 
Q 5166 91 4659 -211 
Q 4153 -513 3200 -513 
z
M 3200 1319 
Q 2478 1319 2103 1126 
Q 1728 934 1728 603 
Q 1728 272 2104 78 
Q 2481 -116 3200 -116 
Q 3919 -116 4295 78 
Q 4672 272 4672 603 
Q 4672 934 4295 1126 
Q 3919 1319 3200 1319 
z
" transform="scale(0.015625)"/>
     <path id="MalgunGothic-41c" d="M 1409 3419 
L 1409 5338 
L 1875 5338 
L 1875 3834 
L 5178 3834 
L 5178 3419 
L 1409 3419 
z
M 403 2344 
L 403 2759 
L 5997 2759 
L 5997 2344 
L 403 2344 
z
M 3200 -488 
Q 2256 -488 1745 -186 
Q 1234 116 1234 634 
Q 1234 1150 1745 1451 
Q 2256 1753 3200 1753 
Q 4144 1753 4655 1451 
Q 5166 1150 5166 634 
Q 5166 116 4655 -186 
Q 4144 -488 3200 -488 
z
M 3200 1356 
Q 2478 1356 2103 1161 
Q 1728 966 1728 634 
Q 1728 303 2100 106 
Q 2472 -91 3200 -91 
Q 3925 -91 4298 106 
Q 4672 303 4672 634 
Q 4672 969 4297 1162 
Q 3922 1356 3200 1356 
z
" transform="scale(0.015625)"/>
     <path id="MalgunGothic-1e" d="M 366 3006 
Q 366 3153 469 3254 
Q 572 3356 709 3356 
Q 847 3356 950 3254 
Q 1053 3153 1053 3006 
Q 1053 2863 951 2761 
Q 850 2659 709 2659 
Q 569 2659 467 2761 
Q 366 2863 366 3006 
z
M 988 725 
L 472 -850 
L 125 -850 
L 503 725 
L 988 725 
z
" transform="scale(0.015625)"/>
     <path id="MalgunGothic-608" d="M 5125 3584 
L 5125 2400 
L 4666 2400 
L 4666 5466 
L 5125 5466 
L 5125 4000 
L 6034 4000 
L 6034 3584 
L 5125 3584 
z
M 756 2725 
L 756 5259 
L 1216 5259 
L 1216 4319 
L 3059 4319 
L 3059 5259 
L 3519 5259 
L 3519 2725 
L 756 2725 
z
M 3059 3916 
L 1216 3916 
L 1216 3128 
L 3059 3128 
L 3059 3916 
z
M 1447 -488 
L 1447 991 
L 4666 991 
L 4666 1656 
L 1447 1656 
L 1447 2069 
L 5125 2069 
L 5125 603 
L 1906 603 
L 1906 -78 
L 5294 -78 
L 5294 -488 
L 1447 -488 
z
" transform="scale(0.015625)"/>
     <path id="MalgunGothic-63b" d="M 1038 2316 
L 1038 5253 
L 1497 5253 
L 1497 4200 
L 3366 4200 
L 3366 5253 
L 3828 5253 
L 3828 4556 
L 4947 4556 
L 4947 5466 
L 5416 5466 
L 5416 1881 
L 4947 1881 
L 4947 2925 
L 3828 2925 
L 3828 2316 
L 1038 2316 
z
M 3828 3334 
L 4947 3334 
L 4947 4141 
L 3828 4141 
L 3828 3334 
z
M 3366 3788 
L 1497 3788 
L 1497 2725 
L 3366 2725 
L 3366 3788 
z
M 3566 -538 
Q 2616 -538 2105 -217 
Q 1594 103 1594 622 
Q 1594 1138 2105 1458 
Q 2616 1778 3566 1778 
Q 4516 1778 5027 1456 
Q 5538 1134 5538 622 
Q 5538 106 5028 -216 
Q 4519 -538 3566 -538 
z
M 3566 1381 
Q 2853 1381 2473 1172 
Q 2094 963 2094 622 
Q 2094 288 2467 77 
Q 2841 -134 3566 -134 
Q 4288 -134 4663 77 
Q 5038 288 5038 622 
Q 5038 963 4656 1172 
Q 4275 1381 3566 1381 
z
" transform="scale(0.015625)"/>
     <path id="MalgunGothic-b59" d="M 609 4481 
L 609 4891 
L 2156 4891 
L 2156 5516 
L 2619 5516 
L 2619 4891 
L 4159 4891 
L 4159 4481 
L 609 4481 
z
M 5216 2906 
L 5216 1466 
L 4756 1466 
L 4756 5466 
L 5216 5466 
L 5216 3322 
L 6119 3322 
L 6119 2906 
L 5216 2906 
z
M 4378 1672 
Q 2909 1575 441 1575 
L 397 1978 
Q 1344 1978 2150 1997 
L 2150 2478 
Q 1534 2522 1212 2762 
Q 891 3003 891 3372 
Q 891 3791 1287 4036 
Q 1684 4281 2388 4281 
Q 3072 4281 3475 4028 
Q 3878 3775 3878 3372 
Q 3878 2997 3547 2756 
Q 3216 2516 2613 2478 
L 2613 2003 
Q 3675 2016 4353 2059 
L 4378 1672 
z
M 2388 3897 
Q 1875 3897 1612 3753 
Q 1350 3609 1350 3372 
Q 1350 3134 1625 2990 
Q 1900 2847 2388 2847 
Q 2875 2847 3147 2989 
Q 3419 3131 3419 3372 
Q 3419 3609 3159 3753 
Q 2900 3897 2388 3897 
z
M 4756 -563 
L 4756 750 
L 1331 750 
L 1331 1159 
L 5216 1159 
L 5216 -563 
L 4756 -563 
z
" transform="scale(0.015625)"/>
     <path id="MalgunGothic-569" d="M 1344 3150 
L 1344 4447 
L 4594 4447 
L 4594 4953 
L 1344 4953 
L 1344 5363 
L 5056 5363 
L 5056 4044 
L 1806 4044 
L 1806 3559 
L 5191 3559 
L 5191 3150 
L 1344 3150 
z
M 1325 -447 
L 1325 856 
L 4609 856 
L 4609 1313 
L 1325 1313 
L 1325 1722 
L 2003 1722 
L 2003 2259 
L 403 2259 
L 403 2663 
L 5997 2663 
L 5997 2259 
L 4397 2259 
L 4397 1722 
L 5069 1722 
L 5069 453 
L 1784 453 
L 1784 -38 
L 5203 -38 
L 5203 -447 
L 1325 -447 
z
M 3938 1722 
L 3938 2259 
L 2463 2259 
L 2463 1722 
L 3938 1722 
z
" transform="scale(0.015625)"/>
     <path id="MalgunGothic-427" d="M 4953 2088 
L 4953 5466 
L 5428 5466 
L 5428 2088 
L 4953 2088 
z
M 4469 2803 
Q 3950 2663 1131 2663 
L 1131 5222 
L 1600 5222 
L 1600 3078 
L 2006 3078 
Q 3756 3078 4409 3206 
L 4469 2803 
z
M 1684 -422 
L 1684 1753 
L 5428 1753 
L 5428 -422 
L 1684 -422 
z
M 4966 1338 
L 2144 1338 
L 2144 -6 
L 4966 -6 
L 4966 1338 
z
" transform="scale(0.015625)"/>
    </defs>
    <use xlink:href="#MalgunGothic-24"/>
    <use xlink:href="#MalgunGothic-30" transform="translate(65.828125 0)"/>
    <use xlink:href="#MalgunGothic-35" transform="translate(157.53125 0)"/>
    <use xlink:href="#MalgunGothic-3" transform="translate(218.515625 0)"/>
    <use xlink:href="#MalgunGothic-16" transform="translate(253.671875 0)"/>
    <use xlink:href="#MalgunGothic-18" transform="translate(308.75 0)"/>
    <use xlink:href="#MalgunGothic-8" transform="translate(363.828125 0)"/>
    <use xlink:href="#MalgunGothic-3" transform="translate(447.46875 0)"/>
    <use xlink:href="#MalgunGothic-e" transform="translate(482.625 0)"/>
    <use xlink:href="#MalgunGothic-3" transform="translate(552.6875 0)"/>
    <use xlink:href="#MalgunGothic-90f" transform="translate(587.84375 0)"/>
    <use xlink:href="#MalgunGothic-807" transform="translate(687.84375 0)"/>
    <use xlink:href="#MalgunGothic-916" transform="translate(787.84375 0)"/>
    <use xlink:href="#MalgunGothic-8f8" transform="translate(887.84375 0)"/>
    <use xlink:href="#MalgunGothic-466" transform="translate(987.84375 0)"/>
    <use xlink:href="#MalgunGothic-3" transform="translate(1087.84375 0)"/>
    <use xlink:href="#MalgunGothic-15" transform="translate(1123 0)"/>
    <use xlink:href="#MalgunGothic-18" transform="translate(1178.078125 0)"/>
    <use xlink:href="#MalgunGothic-8" transform="translate(1233.15625 0)"/>
    <use xlink:href="#MalgunGothic-3" transform="translate(1316.796875 0)"/>
    <use xlink:href="#MalgunGothic-e" transform="translate(1351.953125 0)"/>
    <use xlink:href="#MalgunGothic-3" transform="translate(1422.015625 0)"/>
    <use xlink:href="#MalgunGothic-2c3" transform="translate(1457.171875 0)"/>
    <use xlink:href="#MalgunGothic-8b8" transform="translate(1557.171875 0)"/>
    <use xlink:href="#MalgunGothic-6fd" transform="translate(1657.171875 0)"/>
    <use xlink:href="#MalgunGothic-3" transform="translate(1757.171875 0)"/>
    <use xlink:href="#MalgunGothic-15" transform="translate(1792.328125 0)"/>
    <use xlink:href="#MalgunGothic-13" transform="translate(1847.40625 0)"/>
    <use xlink:href="#MalgunGothic-8" transform="translate(1902.484375 0)"/>
    <use xlink:href="#MalgunGothic-3" transform="translate(1986.125 0)"/>
    <use xlink:href="#MalgunGothic-e" transform="translate(2021.28125 0)"/>
    <use xlink:href="#MalgunGothic-3" transform="translate(2091.34375 0)"/>
    <use xlink:href="#MalgunGothic-b2d" transform="translate(2126.5 0)"/>
    <use xlink:href="#MalgunGothic-470" transform="translate(2226.5 0)"/>
    <use xlink:href="#MalgunGothic-27c" transform="translate(2326.5 0)"/>
    <use xlink:href="#MalgunGothic-41c" transform="translate(2426.5 0)"/>
    <use xlink:href="#MalgunGothic-6fd" transform="translate(2526.5 0)"/>
    <use xlink:href="#MalgunGothic-3" transform="translate(2626.5 0)"/>
    <use xlink:href="#MalgunGothic-15" transform="translate(2661.65625 0)"/>
    <use xlink:href="#MalgunGothic-13" transform="translate(2716.734375 0)"/>
    <use xlink:href="#MalgunGothic-8" transform="translate(2771.8125 0)"/>
    <use xlink:href="#MalgunGothic-1e" transform="translate(2855.453125 0)"/>
    <use xlink:href="#MalgunGothic-3" transform="translate(2877.328125 0)"/>
    <use xlink:href="#MalgunGothic-608" transform="translate(2912.484375 0)"/>
    <use xlink:href="#MalgunGothic-63b" transform="translate(3012.484375 0)"/>
    <use xlink:href="#MalgunGothic-b59" transform="translate(3112.484375 0)"/>
    <use xlink:href="#MalgunGothic-569" transform="translate(3212.484375 0)"/>
    <use xlink:href="#MalgunGothic-887" transform="translate(3312.484375 0)"/>
    <use xlink:href="#MalgunGothic-3" transform="translate(3412.484375 0)"/>
    <use xlink:href="#MalgunGothic-7c5" transform="translate(3447.640625 0)"/>
    <use xlink:href="#MalgunGothic-427" transform="translate(3547.640625 0)"/>
   </g>
  </g>
 </g>
 <defs>
  <clipPath id="pde1261b1b3">
   <rect x="93.7" y="62.496" width="530.1" height="345.6"/>
  </clipPath>
 </defs>
</svg>
